<svg width="32" height="32" viewBox="0 0 32 32" fill="none" xmlns="http://www.w3.org/2000/svg">
<rect width="32" height="32" rx="4" fill="#FFAB08"/>
<path d="M22.9068 9.24514L24.9068 9.18195V16.2597H22.4941L22.9068 9.24514Z" fill="#FFA132"/>
<ellipse cx="16.7481" cy="21.4416" rx="2.38095" ry="3.03332" fill="#FFA132"/>
<path d="M12.3805 11.5517C12.3805 13.2269 11.2193 12.942 9.90434 12.942C8.58938 12.942 7.71387 12.4996 7.71387 11.8992C7.71387 10.224 8.68462 10.0034 9.99958 10.0034C11.3145 10.0034 12.3805 9.87642 12.3805 11.5517Z" fill="#FFA132"/>
<path d="M6.53076 6.10881C6.41357 6.17413 6.25889 6.31409 6.1792 6.4214L6.03857 6.62202V9.12273V11.6281L6.16045 11.9407C6.60107 13.0651 7.54795 13.8116 8.68701 13.9282L8.9917 13.9609L9.01514 19.6061L9.03857 25.2514L9.1417 25.4194C9.20264 25.5127 9.33857 25.648 9.44639 25.7226C9.61982 25.8439 9.68076 25.8579 9.99951 25.8579C10.3136 25.8579 10.3792 25.8439 10.5433 25.7319C10.6417 25.662 10.7776 25.5267 10.8433 25.4287L10.9604 25.2561L10.9839 19.6108L11.0073 13.9609L11.312 13.9282C12.4792 13.8116 13.5011 12.9764 13.8573 11.8614C13.9604 11.5395 13.9604 11.4881 13.9604 9.08074V6.62668L13.8339 6.44473C13.6276 6.15546 13.412 6.03416 13.0511 6.0155C12.6667 5.99684 12.3901 6.12281 12.1792 6.4214L12.0386 6.62202L12.0151 7.79306L11.9917 8.96877H11.4995H11.0073L10.9839 7.79772C10.9604 6.64534 10.9604 6.62668 10.8433 6.45872C10.6464 6.1648 10.4073 6.03416 10.0511 6.0155C9.6667 5.99684 9.39014 6.12281 9.1792 6.4214L9.03857 6.62202L9.01514 7.79306L8.9917 8.96877H8.49951H8.00732L7.98389 7.79772L7.96045 6.62668L7.83389 6.44473C7.62764 6.15546 7.41201 6.03416 7.05107 6.0155C6.79326 6.0015 6.7042 6.02016 6.53076 6.10881ZM11.9683 11.0916C11.9683 11.3762 11.7386 11.6888 11.4058 11.866C11.2558 11.9454 11.1245 11.9547 9.99951 11.9547C8.81826 11.9547 8.74795 11.95 8.56982 11.8521C8.25107 11.6841 8.03076 11.3715 8.03076 11.0916V10.9516H9.99951H11.9683V11.0916Z" fill="white"/>
<path d="M16.2478 6.10881C16.1306 6.17413 15.9759 6.31409 15.8962 6.4214L15.7556 6.62202L15.7321 11.8241L15.7087 17.0261L15.3149 17.1427C14.3306 17.4227 13.5946 18.0105 13.1821 18.8363C12.8212 19.5688 12.7603 19.8721 12.7603 20.9358C12.7603 21.7149 12.7743 21.9016 12.8587 22.2421C13.3181 24.0477 14.3353 25.2794 15.7556 25.7506C16.0321 25.8392 16.1821 25.8579 16.7165 25.8579C17.2509 25.8579 17.4009 25.8392 17.6774 25.7506C19.0978 25.2794 20.1149 24.0477 20.5743 22.2421C20.6587 21.9016 20.6728 21.7149 20.6728 20.9358C20.6728 20.152 20.6587 19.9747 20.5696 19.6528C20.2181 18.3604 19.379 17.502 18.1181 17.1427L17.7243 17.0261L17.7009 11.8287L17.6774 6.62668L17.5509 6.44473C17.3446 6.15546 17.129 6.03416 16.7681 6.0155C16.5103 6.0015 16.4212 6.02017 16.2478 6.10881ZM17.6399 19.0696C18.1649 19.2469 18.5071 19.6528 18.6384 20.2406C18.7274 20.6465 18.6759 21.6636 18.5446 22.0788C18.3009 22.844 17.8368 23.4878 17.3353 23.7398C17.0212 23.8984 16.4165 23.9031 16.1071 23.7444C15.5728 23.4692 15.1415 22.872 14.879 22.0555C14.7853 21.7476 14.7712 21.6123 14.7712 20.9358C14.7712 20.1847 14.7759 20.1613 14.9071 19.8721C15.1415 19.3682 15.6196 19.0416 16.2478 18.9576C16.2478 18.9576 17.3493 18.9763 17.6399 19.0696Z" fill="white"/>
<path d="M25.2856 6.09015C24.6856 6.40274 23.7575 7.25186 23.1856 8.00301C21.7606 9.89254 20.9309 12.5612 20.7387 15.897C20.6684 17.1194 20.7012 17.3014 21.0247 17.6233C21.3387 17.9359 21.4231 17.9499 23.2043 17.9499H24.7325V21.5563V25.1674L24.8403 25.3634C24.8965 25.4753 25.0372 25.6293 25.1497 25.7133C25.3325 25.8439 25.3793 25.8579 25.7122 25.8579C26.0309 25.8579 26.0965 25.8439 26.2606 25.7319C26.359 25.662 26.495 25.5267 26.5606 25.4287L26.6778 25.2561V15.9437V6.62668L26.5512 6.44473C26.345 6.1508 26.1293 6.03416 25.7684 6.0155C25.534 6.00617 25.4168 6.02016 25.2856 6.09015ZM24.7325 12.6312V15.9437H23.7387H22.7497L22.7825 15.4632C22.8668 14.1801 23.1809 12.6312 23.5887 11.4881C23.8606 10.7323 24.5918 9.31868 24.709 9.31868C24.7231 9.31868 24.7325 10.807 24.7325 12.6312Z" fill="white"/>
</svg>
