<svg width="32" height="30" viewBox="0 0 32 30" fill="none" xmlns="http://www.w3.org/2000/svg">
<path d="M30.3411 15.6115C30.3411 15.6115 33.3538 19.5406 25.5945 24.6827C17.8349 29.8246 7.01714 31.5259 4.86444 25.9886C2.71175 20.4512 4.72162 22.0908 12.9927 21.143C21.2635 20.1952 26.7706 11.5951 28.1012 12.5324C29.4313 13.47 30.3411 15.6115 30.3411 15.6115" fill="#F9A332"/>
<path d="M11.5444 28.6958C9.20936 28.6958 7.22904 28.1448 5.96533 26.9262C6.52442 26.6623 6.96706 26.3943 7.33691 26.1705C7.75844 25.9154 8.0999 25.7088 8.31196 25.7088C8.33465 25.7088 8.35591 25.7111 8.37558 25.7161C8.48332 25.7432 8.59676 25.8599 8.72235 26.0728C9.08577 26.6885 9.58192 27.0251 10.1246 27.0251C10.1464 27.0251 10.1683 27.0246 10.1902 27.0236C10.7647 26.9957 11.2946 26.5785 11.6076 25.9075C11.7933 25.5097 12.0357 25.268 12.3486 25.1687C12.4646 25.1318 12.5941 25.1134 12.7363 25.1134C13.2587 25.1134 13.9565 25.3612 14.8178 25.8537C14.8212 25.8556 14.8241 25.8573 14.8273 25.8592C15.1854 26.0719 15.5872 26.2009 16.0618 26.2132C16.1006 26.2143 16.1389 26.2148 16.1767 26.2148C17.4894 26.2148 18.1087 25.6144 18.483 25.2517C18.5804 25.1573 18.7278 25.0146 18.7775 25.0106C18.778 25.0106 18.8216 25.017 18.9204 25.1157C18.4798 25.6319 17.5752 26.6322 16.1931 26.6322C15.6001 26.6322 14.9192 26.4478 14.1496 25.9622C13.8114 25.7489 13.4652 25.6598 13.1524 25.6598C12.259 25.6598 11.6376 26.387 12.255 27.0231C12.5089 27.2847 13.0189 27.3756 13.6052 27.3756C14.5529 27.3756 15.6994 27.138 16.2839 26.9994C17.4571 26.7129 18.6531 26.3322 19.8416 25.8674C20.059 25.9642 20.2814 26.0153 20.4913 26.0153C20.6992 26.0153 20.8949 25.9652 21.0618 25.8597C21.2042 25.7698 21.4313 25.5666 21.4897 25.1664C22.9054 24.5153 24.291 23.7489 25.5944 22.8851C28.6223 20.8784 30.0097 19.0569 30.576 17.581C30.5789 17.8134 30.5612 18.0662 30.5142 18.338C30.4378 18.7806 30.2899 19.2289 30.0728 19.6808C29.3182 20.9439 27.9548 22.3957 25.5944 23.9599C21.1815 26.8843 15.7792 28.6958 11.5444 28.6958ZM21.2428 23.9255C21.229 23.8944 21.2145 23.8629 21.1994 23.8308C21.1506 23.7272 21.1062 23.618 21.0666 23.5037C21.0735 23.5037 21.0798 23.5037 21.0867 23.5037C22.5956 23.5037 23.1698 22.7574 23.8655 21.8534C24.1114 21.5338 24.3654 21.2035 24.6916 20.8553C25.2798 20.2271 26.1805 20.1889 27.0515 20.1519C27.6244 20.1277 28.1735 20.1043 28.5911 19.898C27.5761 20.9058 26.2399 19.8971 25.4404 21.1629C24.531 22.6027 23.7226 23.6132 22.005 23.8152C21.7258 23.848 21.4731 23.8844 21.2428 23.9255M29.2902 18.7421C29.2944 18.6644 29.2944 18.5831 29.2907 18.498C29.2604 17.8126 29.2567 17.3449 29.3312 17.1315C29.3713 17.0161 29.4233 16.9857 29.6986 16.8658C29.8795 16.7868 30.1114 16.6856 30.4008 16.505C30.4426 16.632 30.4811 16.7757 30.5118 16.9352C29.3769 17.2078 29.8193 17.4849 29.2902 18.7421Z" fill="#BF6700"/>
<path d="M27.8587 12.8029C27.7802 12.8029 27.5853 12.848 27.1593 13.1469C26.663 13.4955 26.0173 14.0711 25.2695 14.7373C22.5301 17.1785 18.3902 20.8677 13.0314 21.4818C11.0719 21.7064 9.46785 21.7861 8.17891 21.8503C6.18917 21.9495 4.87465 22.0149 4.52935 22.5477C4.19886 23.0573 4.55146 24.2423 5.18231 25.8651C5.70072 27.1987 6.77807 28.1333 8.38437 28.6433C12.5435 29.9635 19.7018 28.1784 25.4059 24.3984C28.4065 22.41 30.1729 20.3144 30.5142 18.338C30.7816 16.7894 30.0985 15.8566 30.0693 15.8178C30.0526 15.7957 30.0378 15.7704 30.027 15.745C30.0152 15.717 29.136 13.6791 27.9045 12.8113C27.904 12.811 27.8916 12.8029 27.8587 12.8029M11.5504 29.7632C10.2993 29.7633 9.16577 29.6069 8.17805 29.2933C6.36524 28.7179 5.14349 27.6476 4.54661 26.1122C3.7829 24.148 3.46283 22.9391 3.957 22.1767C4.49223 21.351 5.78963 21.2864 8.14494 21.1693C9.4242 21.1055 11.0161 21.0263 12.9538 20.8042C18.098 20.2148 22.1408 16.612 24.816 14.2283C26.6051 12.6339 27.5902 11.7556 28.2973 12.2538C29.6105 13.1793 30.5077 15.1425 30.6393 15.4425C30.7902 15.6596 31.4712 16.7509 31.1906 18.4278C30.8221 20.6332 29.0023 22.8332 25.7828 24.9669C22.9817 26.8231 19.6975 28.2847 16.5351 29.0824C14.7375 29.5357 13.0586 29.7632 11.5504 29.7632Z" fill="#6D184E"/>
<path d="M3.43948 22.5017C3.43948 22.5017 1.4693 22.1986 1.29246 23.5372C1.11568 24.876 3.28794 24.3456 3.2627 25.3813C3.23743 26.4168 3.21217 27.7809 5.43507 26.8463C7.65783 25.9117 8.26401 24.7273 8.97136 25.9258C9.67855 27.1242 10.8153 26.9221 11.3456 25.7854C11.8762 24.6487 12.9189 24.4351 14.9615 25.6029C16.0544 26.2276 16.6474 25.3375 17.3893 24.4472C18.0338 23.6738 18.7907 22.9004 20.0856 23.1206C22.8703 23.5942 22.9904 22.2491 24.4805 20.6578C25.9709 19.0664 29.1031 20.8093 29.0021 18.5106C28.901 16.2121 29.1409 17.0773 30.5238 16.0732C31.9069 15.0691 31.8878 12.72 29.1788 12.9285C26.4697 13.1368 19.7319 22.8553 3.43948 22.5017" fill="#48C75A"/>
<path d="M29.0253 16.5874C29.1275 16.1628 29.6155 15.9044 30.6281 15.1165C30.8068 14.9771 30.9858 14.7459 31.1361 14.5137C31.0992 14.9958 30.8116 15.5071 30.3541 15.8394C29.9745 16.1147 29.6936 16.2372 29.4675 16.3356C29.2813 16.4167 29.1366 16.493 29.0253 16.5874" fill="#B6E9BD"/>
<path d="M21.9235 22.8167C22.8155 22.333 23.2404 21.3095 24.2297 20.1772C25.4764 18.7502 27.7975 19.6622 28.6967 18.8646C28.6702 19.0222 28.6159 19.1449 28.5323 19.2359C28.2701 19.5215 27.6662 19.5473 27.027 19.5743C26.0859 19.6142 25.0192 19.6597 24.2696 20.4601C23.9246 20.8286 23.6498 21.1858 23.4073 21.5009C22.9141 22.1419 22.5526 22.6119 21.9235 22.8167Z" fill="#B6E9BD"/>
<path d="M4.21247 26.8696C4.05565 26.8696 3.93009 26.8385 3.83847 26.7759C3.52312 26.5609 3.53895 25.9107 3.55166 25.3882C3.56877 24.6895 2.90411 24.4828 2.41894 24.3319C1.77745 24.1325 1.52186 24.0082 1.57908 23.5751C1.60968 23.3435 1.70894 23.1676 1.88256 23.0368C2.11214 22.8642 2.44562 22.7928 2.74929 22.77C3.61003 24.1069 4.92538 24.8501 6.46234 24.8501C6.65714 24.8501 6.85577 24.8381 7.05712 24.814C8.96122 24.5535 10.8762 24.1471 12.7876 23.5989C12.8621 23.7005 12.9353 23.8012 13.0075 23.9009C13.2014 24.1678 13.3895 24.427 13.5796 24.6691C13.2723 24.5798 12.9911 24.5354 12.7344 24.5354C12.5326 24.5354 12.3458 24.5628 12.1737 24.6176C11.7047 24.7665 11.338 25.1182 11.0838 25.663C10.8631 26.136 10.5186 26.4287 10.1624 26.446C10.1523 26.4464 10.1423 26.4465 10.1322 26.4465C9.79871 26.4465 9.47636 26.2125 9.22036 25.7787C9.00931 25.4211 8.78571 25.2229 8.51673 25.1553C8.44867 25.1382 8.38061 25.1302 8.31198 25.1302C7.93938 25.1302 7.54827 25.3666 7.03754 25.6757C6.59621 25.9428 6.04698 26.2753 5.32294 26.5797C4.86473 26.7723 4.48974 26.8696 4.21247 26.8696M21.1135 22.9302C21.0498 22.9302 20.984 22.9287 20.9159 22.9254C20.7831 22.2102 20.8059 21.3656 21.016 20.4832C23.5009 19.334 25.8193 17.9852 27.9384 16.4542C28.9671 15.6849 29.5674 14.6435 29.7039 13.4705C29.7213 13.4668 29.7382 13.4634 29.7554 13.4601C29.9036 14.3383 29.7544 15.4845 28.5725 16.5657C26.1981 18.7379 23.5206 19.3189 22.3081 20.5567C21.5776 21.3025 21.4983 22.2589 21.5505 22.9014C21.4169 22.9204 21.2721 22.9302 21.1135 22.9302" fill="#539256"/>
<path d="M2.99165 22.7611C2.63791 22.7611 2.17558 22.8165 1.88249 23.037C1.70889 23.1677 1.60961 23.3436 1.579 23.5752C1.5218 24.0083 1.77736 24.1326 2.41887 24.3321C2.90403 24.4829 3.5687 24.6897 3.55157 25.3883C3.53887 25.9109 3.52302 26.561 3.83839 26.776C4.09223 26.9492 4.60552 26.8813 5.32283 26.5798C6.04688 26.2754 6.59609 25.943 7.03745 25.6758C7.6422 25.3098 8.07942 25.0455 8.51664 25.1554C8.78563 25.2231 9.00921 25.4213 9.22026 25.7789C9.48396 26.2256 9.81814 26.4607 10.1623 26.4461C10.5185 26.4288 10.863 26.1362 11.0837 25.6631C11.3379 25.1183 11.7046 24.7666 12.1736 24.6177C12.886 24.3912 13.8449 24.6316 15.1048 25.3519C15.8642 25.786 16.2743 25.3492 16.9931 24.4733C17.6895 23.6242 18.5562 22.5672 20.134 22.8355C22.1203 23.1737 22.5773 22.5794 23.4072 21.5009C23.6496 21.1858 23.9244 20.8286 24.2695 20.4602C25.019 19.6597 26.0858 19.6143 27.0269 19.5744C27.6661 19.5472 28.2699 19.5216 28.5319 19.2359C28.6684 19.0872 28.7277 18.8541 28.713 18.5234C28.6419 16.904 28.7264 16.6586 29.4675 16.3358C29.6933 16.2372 29.9746 16.1147 30.354 15.8393C30.9802 15.3845 31.2882 14.5949 31.0703 14.0025C30.856 13.4194 30.1922 13.1399 29.2008 13.2167C28.5371 13.2677 27.4515 14.072 26.0769 15.0903C24.1229 16.5379 21.4467 18.5207 17.7595 20.1177C13.4071 22.0032 8.58612 22.9029 3.43314 22.7907C3.42072 22.7904 3.4083 22.7893 3.39589 22.7876C3.30699 22.774 3.16187 22.7611 2.99165 22.7611M4.20954 27.4465C3.93227 27.4465 3.70098 27.3822 3.51262 27.2536C2.93742 26.8613 2.95752 26.0369 2.97367 25.3742C2.97909 25.15 2.79699 25.0551 2.24707 24.8842C1.70235 24.7148 0.879139 24.4587 1.00587 23.4995C1.05718 23.1109 1.2358 22.7994 1.53665 22.5738C2.21311 22.0665 3.29587 22.1902 3.4631 22.2131C15.1558 22.4614 21.776 17.5568 25.7329 14.6259C27.2949 13.4687 28.3268 12.7042 29.1564 12.6402C30.9374 12.5037 31.4677 13.4079 31.6131 13.8029C31.922 14.6428 31.5352 15.696 30.6936 16.3069C30.263 16.6196 29.9368 16.7618 29.6984 16.8658C29.4234 16.9857 29.3713 17.0162 29.331 17.1316C29.2567 17.3449 29.2605 17.8125 29.2907 18.4981C29.3122 18.99 29.2036 19.3592 28.9582 19.6267C28.5341 20.089 27.8137 20.1196 27.0514 20.152C26.1804 20.1889 25.2797 20.2272 24.6916 20.8553C24.3653 21.2035 24.1112 21.5338 23.8653 21.8535C23.0278 22.9419 22.3662 23.8017 20.0367 23.4056C18.7901 23.1935 18.1038 24.0304 17.4398 24.8399C16.7823 25.6419 16.0366 26.5505 14.8178 25.8538C13.7216 25.2271 12.8908 24.9968 12.3486 25.1687C12.0356 25.268 11.7932 25.5098 11.6076 25.9076C11.2945 26.5785 10.7646 26.9958 10.1902 27.0236C9.62196 27.0518 9.10039 26.7134 8.72225 26.0728C8.59669 25.8599 8.48325 25.7432 8.37551 25.7161C8.17203 25.6651 7.80344 25.888 7.33683 26.1706C6.87935 26.4474 6.31001 26.792 5.54701 27.1128C5.01719 27.3355 4.57384 27.4465 4.20954 27.4465" fill="#6D184E"/>
<path d="M24.5356 8.154C24.1843 8.29452 23.8825 8.51623 23.6345 8.80013C22.126 9.83869 18.8399 11.9299 14.6705 13.5776C10.5164 15.2615 6.69486 16.0154 4.88635 16.3045C4.51106 16.2704 4.13961 16.3183 3.78831 16.4588C2.18585 17.1002 1.60974 19.4266 2.50163 21.6546C3.39347 23.8826 5.1649 24.7499 7.01806 24.5275C11.1418 23.9637 14.8275 22.7763 17.8419 21.4998C20.9045 20.3438 24.3917 18.66 27.7653 16.2228C29.2603 15.1051 29.9439 13.2552 29.0521 11.0269C28.1603 8.79883 26.1381 7.51281 24.5356 8.154" fill="#DB2839"/>
<path d="M6.45073 24.2732C4.79662 24.2732 3.47257 23.3026 2.76993 21.5473C2.71641 21.4136 2.6682 21.279 2.62524 21.144C2.73539 21.1059 2.84842 21.0681 2.96357 21.0317C2.88194 21.4045 2.86811 21.7876 3.07629 22.1041C3.2835 22.419 3.65791 22.5978 4.22086 22.6508C4.30333 22.6585 4.38381 22.6622 4.46243 22.6622C5.63096 22.6622 6.38296 21.8431 6.94147 21.2348C7.28352 20.8624 7.60656 20.5105 7.87154 20.5105C7.87356 20.5105 7.87555 20.5105 7.87741 20.5105C8.03222 20.5135 8.21558 20.6388 8.42251 20.8826C9.15565 21.7475 10.1146 22.2178 11.1368 22.2177C11.1828 22.2177 11.229 22.2168 11.2752 22.2148C11.3988 22.2097 11.5211 22.1976 11.6418 22.1787C11.9252 22.4848 12.1798 22.7959 12.4167 23.1035C10.6029 23.6137 8.78723 23.9939 6.98356 24.2406C6.80247 24.2624 6.62483 24.2732 6.45073 24.2732M7.77923 21.2248C7.73428 21.2248 7.69462 21.2486 7.65781 21.302C7.51182 21.5136 7.20003 21.8094 6.87183 22.0934C6.6558 22.2803 6.72029 22.6265 6.98614 22.7309C7.46144 22.9177 7.96815 23.0079 8.48799 23.0079C8.67221 23.0079 8.85814 22.9966 9.04479 22.9742C9.05048 22.9734 9.05619 22.9727 9.06191 22.9718C9.42263 22.9223 9.50711 22.4393 9.18647 22.2669C8.36927 21.8275 8.00626 21.2248 7.77923 21.2248M21.2348 19.7419C21.5817 18.7606 22.163 17.765 23.0209 16.876C23.1528 16.887 23.2867 16.8936 23.4211 16.8936C23.5382 16.8936 23.6555 16.8885 23.7716 16.8768C23.4706 17.2222 23.2079 17.5584 22.9867 17.8614C22.7946 18.1247 23.0041 18.4573 23.2836 18.4573C23.3364 18.4573 23.392 18.4453 23.4479 18.4185C24.2484 18.0356 25.0616 17.6168 25.8807 17.1589C24.4142 18.1035 22.862 18.9664 21.2348 19.7419ZM25.6491 15.1381C25.6661 15.0781 25.6809 15.0192 25.6937 14.9618C27.061 14.2448 28.2012 13.8443 29.1065 13.6099C29.0943 13.6813 29.08 13.7519 29.0636 13.8221C27.7744 13.9002 26.624 14.4351 25.6491 15.1381Z" fill="#A92142"/>
<path d="M4.65534 16.5829C4.39008 16.5829 4.13536 16.6311 3.89575 16.7271C3.2094 17.002 2.71026 17.6427 2.49023 18.5312C2.26161 19.4543 2.36093 20.5253 2.77004 21.5471C3.54658 23.4871 5.08213 24.4685 6.98368 24.2405C10.5545 23.7522 14.1714 22.7402 17.7293 21.2336C17.7327 21.232 17.7361 21.2306 17.7398 21.2293C21.3547 19.865 24.6708 18.1015 27.5961 15.9886C29.1259 14.8445 29.5601 13.0742 28.7836 11.1343C27.9526 9.05777 26.0949 7.841 24.6431 8.42256L24.5358 8.15402L24.6431 8.42256C24.3423 8.54269 24.0764 8.73375 23.8521 8.99024C23.8362 9.0083 23.8184 9.02427 23.7985 9.03814C22.2158 10.1277 18.9393 12.2014 14.777 13.8463C10.6316 15.5269 6.82929 16.2867 4.93203 16.59C4.90819 16.5937 4.88393 16.5945 4.86011 16.5924C4.79117 16.5861 4.72297 16.5829 4.65534 16.5829M6.46243 24.8501C4.57428 24.8502 3.02049 23.7285 2.23324 21.762C1.77961 20.6286 1.67155 19.4318 1.92901 18.3923C2.19497 17.3181 2.81712 16.5361 3.68088 16.1903C4.05601 16.0401 4.45784 15.981 4.8755 16.0134C6.75996 15.7103 10.4926 14.9592 14.5621 13.3095C18.648 11.6949 21.8682 9.66288 23.4415 8.58195C23.7213 8.26997 24.0531 8.03599 24.4282 7.88549C26.176 7.18616 28.3708 8.54688 29.3204 10.9194C30.1888 13.0889 29.6721 15.1578 27.9385 16.4544C24.9697 18.599 21.6102 20.386 17.9491 21.7682C14.3462 23.2936 10.6816 24.3184 7.05718 24.814C6.85583 24.8381 6.65721 24.8501 6.46243 24.8501Z" fill="#6D184E"/>
<path d="M3.03542 18.8897C3.03542 18.8897 1.09044 19.6727 0.610546 21.0115C0.325426 21.8067 1.14555 21.3631 2.39315 20.9195C3.2459 20.6162 4.29826 20.313 5.33395 20.4053C6.27959 20.4895 6.64218 20.206 6.90545 19.9225C7.35237 19.441 7.51289 18.9594 9.75435 20.2789C13.316 22.3755 13.6444 25.8613 16.0692 25.9243C17.0403 25.9497 17.5982 25.6367 17.9767 25.3238C18.5429 24.8551 18.7068 24.3867 19.2518 25.0531C20.1612 26.1644 21.885 25.9623 20.9378 23.9542C19.9906 21.946 20.5906 17.5256 24.8848 15.0755C29.1787 12.6254 31.4773 13.1558 31.6794 12.8023C31.8816 12.4486 30.9216 10.6298 27.8652 10.5794C24.8089 10.5288 17.1301 18.3341 3.03542 18.8897Z" fill="#FCAF15"/>
<path d="M16.1715 25.6365C16.1403 25.6365 16.1089 25.6361 16.0767 25.6353C14.9603 25.6061 14.3374 24.7485 13.4754 23.5612C13.1258 23.0797 12.7391 22.5472 12.2696 22.0137C12.8748 21.787 13.4087 21.3787 13.8037 20.8257C14.1774 20.3028 14.5009 20.1029 14.9007 20.1029C15.2882 20.1029 15.7472 20.2908 16.3921 20.5551C16.7996 20.7218 17.2614 20.911 17.7992 21.0844C18.1494 21.197 18.4929 21.2525 18.821 21.2525C19.4044 21.2525 19.9389 21.0771 20.3742 20.7356C20.315 20.8468 20.2624 20.9588 20.2156 21.0708C19.6924 21.351 19.1781 21.4551 18.6835 21.4551C17.9705 21.4551 17.2989 21.2387 16.7026 21.0224C16.1061 20.8059 15.5851 20.5896 15.1729 20.5896C14.9435 20.5896 14.7478 20.6566 14.5916 20.8282C14.0344 21.4399 13.4847 22.0508 13.1489 22.2391C14.1464 23.597 14.7557 24.7392 16.1296 24.7748C16.1632 24.7756 16.196 24.7763 16.2286 24.7763C17.1559 24.7763 17.6817 24.4273 18.0362 24.0785C18.3904 23.7295 18.5733 23.3807 18.8148 23.3807C18.9361 23.3807 19.072 23.4686 19.2519 23.6884C19.5761 24.0848 20.0039 24.3136 20.3772 24.3531C20.5427 24.849 20.5147 25.2028 20.3719 25.4268C20.0898 25.3847 19.7457 25.1998 19.4757 24.8698C19.3165 24.6752 19.0971 24.4497 18.8107 24.4333C18.7998 24.4327 18.7886 24.4323 18.7777 24.4323C18.4988 24.4323 18.2954 24.6284 18.0809 24.8364C17.7301 25.1765 17.2529 25.6365 16.1715 25.6365M0.869263 21.148C0.873152 21.1361 0.877567 21.1229 0.882651 21.1087C1.05769 20.6206 1.46206 20.2076 1.88117 19.8892C2.14402 19.8837 2.41629 19.863 2.68584 19.8426C2.85264 19.83 3.01018 19.8179 3.16472 19.8096C3.17997 19.8088 3.19369 19.8083 3.20596 19.8083C3.24562 19.8083 3.27074 19.8122 3.28502 19.8156C3.29913 19.9145 3.22079 20.1703 3.1563 20.3706C2.62675 20.5181 2.13732 20.7024 1.71579 20.8612C1.42005 20.9726 1.06782 21.1053 0.869263 21.148" fill="#D18126"/>
<path d="M5.36914 20.4076C6.91689 20.5322 6.87083 19.6537 7.45209 19.4612C6.35171 19.2145 6.64515 20.2814 5.36914 20.4076Z" fill="#F8CE36"/>
<path d="M0.581421 21.3784C0.827166 21.7582 2.69663 20.507 4.67402 20.3963C3.05636 20.298 1.4186 21.1259 0.581421 21.3784Z" fill="#F8CE36"/>
<path d="M20.4911 24.3596C20.4538 24.3596 20.4157 24.3576 20.3769 24.3535C20.3355 24.2293 20.2819 24.0963 20.2147 23.9541C19.8837 23.2522 19.7641 22.1557 20.2156 21.0711C20.2545 21.0501 20.2937 21.0283 20.3327 21.0054C20.1721 22.148 20.2868 23.2513 20.6764 24.0775C20.7145 24.1583 20.7484 24.2368 20.7776 24.3127C20.6904 24.3441 20.5936 24.3596 20.4911 24.3596Z" fill="#FED78A"/>
<path d="M20.4925 25.4363C20.4539 25.4363 20.4135 25.4332 20.3718 25.427C20.5145 25.2031 20.5426 24.8491 20.377 24.3535C20.4156 24.3576 20.4537 24.3598 20.4911 24.3598C20.5935 24.3598 20.6904 24.3442 20.7776 24.3126C20.9801 24.8356 20.9744 25.2313 20.7532 25.3712C20.6842 25.4145 20.5947 25.4363 20.4925 25.4363M20.2155 21.071C20.262 20.9591 20.3148 20.8471 20.3739 20.7358C20.3745 20.7352 20.3751 20.7348 20.3757 20.7344C20.3597 20.8249 20.3454 20.9152 20.3326 21.0055C20.2936 21.0283 20.2544 21.0503 20.2155 21.071Z" fill="#E8C093"/>
<path d="M21.3695 18.0735C21.3409 17.8004 21.2831 17.5204 21.195 17.2375C21.0659 16.8229 21.1408 16.7299 21.1442 16.7261C21.1779 16.6872 21.2677 16.6725 21.3866 16.6725C21.6138 16.6725 21.9469 16.7261 22.1963 16.7662C22.2321 16.772 22.2686 16.7777 22.306 16.7837C21.9262 17.2151 21.6187 17.6512 21.3695 18.0735" fill="#D18126"/>
<path d="M7.68725 19.1372C8.13702 19.1372 8.79528 19.3789 9.90101 20.0299C11.6652 21.0683 12.6689 22.4507 13.4754 23.5614C14.3374 24.7487 14.9601 25.6062 16.0766 25.6355C17.2254 25.663 17.72 25.1864 18.0808 24.8365C18.3036 24.6205 18.5147 24.4172 18.8108 24.4334C19.097 24.45 19.3165 24.6754 19.4756 24.8699C19.8914 25.3781 20.4828 25.5419 20.7532 25.3711C21.0066 25.2108 20.9773 24.7152 20.6763 24.0775C20.126 22.9105 20.1244 21.1898 20.6722 19.5871C21.1452 18.2038 22.2352 16.2543 24.7413 14.8243C27.8341 13.0598 29.9293 12.8132 30.9362 12.6949C31.1103 12.6744 31.3028 12.6517 31.4086 12.6276C31.387 12.5289 31.3107 12.3313 31.0923 12.0781C30.788 11.7254 29.864 10.9015 27.8603 10.8684C26.9306 10.8503 25.4603 11.6678 23.4236 12.7957C19.1104 15.1835 12.5972 18.7897 3.09977 19.1764C2.81892 19.2988 1.2749 20.0147 0.882615 21.1089C0.87753 21.1231 0.873101 21.1362 0.869246 21.1482C1.06778 21.1055 1.42001 20.9728 1.71578 20.8614C2.68395 20.4966 4.01044 19.9976 5.35962 20.1172C6.27587 20.1993 6.522 19.9211 6.78243 19.627C7.032 19.3451 7.27014 19.1372 7.68725 19.1372M16.1767 26.2148C16.139 26.2148 16.1004 26.2144 16.0616 26.2133C14.6599 26.1769 13.8942 25.1222 13.0075 23.9011C12.1921 22.7782 11.268 21.5055 9.60778 20.528C8.70465 19.9965 8.09022 19.7302 7.72949 19.7142C7.49632 19.7054 7.40842 19.792 7.21522 20.0102C6.91999 20.3438 6.5153 20.8001 5.30839 20.6931C4.09019 20.5844 2.83562 21.0573 1.91954 21.4023C1.11237 21.7064 0.667624 21.8741 0.396591 21.6074C0.169818 21.3842 0.296668 21.0302 0.338387 20.9139C0.856151 19.4696 2.84319 18.6555 2.92737 18.6216C2.95821 18.6093 2.99088 18.6022 3.02398 18.6008C12.4127 18.2306 18.8704 14.6556 23.1434 12.2897C25.2588 11.1188 26.7873 10.2732 27.8699 10.2904C30.0381 10.3263 31.3244 11.2413 31.805 12.0858C31.9198 12.2878 32.0891 12.6681 31.9305 12.9456C31.799 13.1755 31.5333 13.2066 31.0037 13.269C30.0346 13.383 28.0184 13.6203 25.0281 15.3267C21.0503 17.5961 20.2395 21.7956 21.1993 23.8308C21.8363 25.1814 21.3155 25.6997 21.0618 25.8598C20.4989 26.2156 19.6055 25.9416 19.0281 25.236C18.8526 25.0216 18.7782 25.0108 18.7774 25.0106C18.7279 25.0146 18.5806 25.1573 18.4832 25.2518C18.1087 25.6145 17.4895 26.2148 16.1767 26.2148" fill="#6D184E"/>
<path d="M18.3142 22.6185C18.3142 22.6185 17.4326 24.2578 16.1296 24.0581C15.141 23.9065 16.7929 24.0994 17.222 22.9027C17.7175 21.5195 18.5694 22.2395 18.3142 22.6185" fill="#F8CE36"/>
<path d="M4.24788 15.9216C4.24788 15.9216 0.76207 16.1111 0.345289 18.0434C-0.0714644 19.9758 1.74719 19.5969 3.14912 19.5211C4.55097 19.4453 1.82292 22.1355 4.24788 22.3628C5.2616 22.4578 5.93753 21.8775 6.48904 21.2971C7.25673 20.4893 7.78301 19.6815 8.64302 20.6957C10.1206 22.4385 12.4318 22.2492 13.5686 20.6578C14.7053 19.0665 15.6523 20.0895 17.8879 20.8094C20.1234 21.5293 21.639 19.6348 20.9191 17.3235C20.5615 16.1761 21.3342 16.3362 22.3372 16.496C23.3547 16.6582 24.6093 16.8204 25.1624 15.6186C26.2611 13.2315 23.9121 12.8148 26.716 12.2465C29.5198 11.678 30.7321 11.4887 30.2776 9.9543C29.823 8.4196 28.762 7.28303 25.2003 8.79864C21.639 10.314 18.4183 16.9447 4.24788 15.9216" fill="#48C75A"/>
<path d="M3.688 20.6055C3.83825 20.1422 3.96595 19.7422 3.74506 19.4553C3.63035 19.3059 3.44811 19.2306 3.20283 19.2306C3.18029 19.2306 3.15716 19.2311 3.13347 19.2324C2.97266 19.241 2.80469 19.2538 2.64217 19.2662C2.34921 19.2884 2.04114 19.3118 1.75561 19.3118C1.72267 19.3118 1.68995 19.3115 1.65766 19.311C1.85265 18.6139 2.21524 17.9339 1.56735 17.9339C1.54946 17.9339 1.53079 17.9341 1.51132 17.9354C1.23556 17.9501 0.943775 17.9766 0.656006 17.9952C0.805119 17.4975 1.20964 17.1373 1.69667 16.8763C1.75238 17.1604 1.81698 17.4413 1.89017 17.7189C3.04771 18.3048 4.29587 18.7035 5.6101 18.9266C5.08441 19.3779 4.53688 20.2328 3.688 20.6055M9.50352 20.3427C9.1769 20.3427 8.84598 20.2885 8.52237 20.1768C8.34954 20.0445 8.17618 19.9666 7.99937 19.9412C7.64463 19.742 7.30746 19.4662 7.00521 19.1098C7.00109 19.1049 6.99694 19.1001 6.9928 19.0953C7.40533 19.1266 7.82329 19.1423 8.24554 19.1423C9.53491 19.1423 10.8664 18.9976 12.2212 18.7172C12.1253 18.8172 12.0287 18.935 11.9308 19.0721C11.3431 19.8949 10.4416 20.3427 9.50352 20.3427M17.183 19.3784C16.8906 19.3784 16.5782 19.3291 16.2503 19.2235C15.2214 18.8922 14.4653 18.4966 13.8382 18.3213C14.8546 18.0349 15.8786 17.6756 16.9028 17.2477C16.9069 17.2459 16.9112 17.2441 16.9156 17.2424C16.9166 17.2418 16.9179 17.2413 16.9191 17.2408C16.9224 17.2396 16.925 17.2385 16.9283 17.237C16.9296 17.2365 16.9308 17.236 16.9324 17.2355C16.9354 17.2342 16.9387 17.2327 16.9418 17.2314C16.9428 17.2309 16.9438 17.2307 16.9448 17.2301C16.9489 17.2284 16.9532 17.2266 16.9573 17.2251L16.9575 17.2248C16.9621 17.223 16.9667 17.221 16.971 17.2192C16.9713 17.219 16.9715 17.2189 16.9718 17.2189C16.9759 17.2172 16.9797 17.2154 16.984 17.2136C16.9845 17.2134 16.9855 17.2131 16.9863 17.2126C16.9899 17.2111 16.9937 17.2095 16.9975 17.208C16.998 17.2078 16.9988 17.2075 16.9993 17.2072C17.0033 17.2055 17.0077 17.2037 17.012 17.2019L17.0122 17.2016C17.0214 17.1978 17.0301 17.194 17.0392 17.1902C17.0395 17.1902 17.04 17.1899 17.0402 17.1899C17.0443 17.1882 17.0484 17.1864 17.0524 17.1846C17.053 17.1843 17.0532 17.1843 17.0537 17.1841C17.0718 17.1765 17.0896 17.1691 17.1074 17.1612L17.1079 17.1609C17.1486 17.1436 17.1891 17.1263 17.2295 17.1088L17.2303 17.1085C17.2481 17.1009 17.2659 17.093 17.284 17.0854L17.2845 17.0849C17.3023 17.0772 17.3198 17.0696 17.3379 17.062C17.3384 17.0615 17.3384 17.0615 17.3389 17.0612C17.3567 17.0533 17.374 17.0459 17.3918 17.0381C17.3923 17.0378 17.3926 17.0378 17.3931 17.0376C17.3969 17.0358 17.4012 17.034 17.4051 17.0322C17.4058 17.032 17.4058 17.032 17.4063 17.0317C17.4193 17.0261 17.4328 17.02 17.4458 17.0144C17.4463 17.0141 17.4468 17.0139 17.4473 17.0134C17.4511 17.0119 17.4549 17.0103 17.4585 17.0085C17.459 17.0083 17.46 17.008 17.4605 17.0075C17.4651 17.0058 17.4687 17.004 17.473 17.0022H17.4732C17.4819 16.9981 17.4908 16.9943 17.4995 16.9905C17.5002 16.99 17.501 16.9897 17.5017 16.9895C17.5051 16.9879 17.5089 16.9862 17.5122 16.9849C17.5132 16.9844 17.514 16.9841 17.5147 16.9836C17.518 16.9821 17.5221 16.9806 17.5254 16.979C17.5262 16.9785 17.5269 16.9783 17.5279 16.9778C17.5363 16.9742 17.5445 16.9704 17.5529 16.9666C17.5539 16.9661 17.5554 16.9653 17.5567 16.965C17.5595 16.9638 17.5625 16.9622 17.5656 16.961C17.5669 16.9602 17.5681 16.96 17.5694 16.9592C17.5725 16.9579 17.575 16.9566 17.5781 16.9554C17.5796 16.9546 17.5809 16.9541 17.5821 16.9536C17.5854 16.9521 17.589 16.9505 17.5923 16.949C17.5928 16.9488 17.5938 16.9483 17.5946 16.948C17.5987 16.9462 17.603 16.9442 17.6071 16.9424C17.6081 16.9419 17.6091 16.9414 17.6101 16.9411C17.6129 16.9396 17.6162 16.9383 17.6193 16.9371C17.6206 16.9363 17.6223 16.9355 17.6239 16.9348C17.6264 16.9337 17.6287 16.9325 17.6312 16.9315C17.6333 16.9307 17.6348 16.9299 17.6368 16.9289C17.6391 16.9279 17.6412 16.9271 17.6435 16.9261C17.6452 16.9251 17.6473 16.9243 17.649 16.9236C17.6511 16.9226 17.6531 16.9215 17.6552 16.9208C17.659 16.919 17.6633 16.917 17.6671 16.9154C17.6686 16.9147 17.6707 16.9137 17.6722 16.9129C17.6747 16.9119 17.6768 16.9109 17.6793 16.9098C17.6809 16.9091 17.6824 16.9083 17.6839 16.9075C17.6864 16.9065 17.689 16.9053 17.6913 16.9042C17.6928 16.9037 17.6943 16.903 17.6956 16.9025C17.6984 16.9009 17.7009 16.8999 17.7037 16.8986C17.704 16.8986 17.7043 16.8984 17.7045 16.8984C17.7147 16.8936 17.7251 16.889 17.7355 16.8841C17.7358 16.8841 17.7363 16.8839 17.7368 16.8836C17.7401 16.8821 17.7437 16.8806 17.747 16.8791L17.7473 16.8788C18.3039 16.6249 18.8456 16.3557 19.3707 16.072C19.778 17.8947 18.7855 19.3784 17.183 19.3784M21.7983 15.0221C21.5988 15.0221 21.3963 15.0058 21.1969 14.9819C22.1517 14.3527 23.0343 13.6696 23.8321 12.9369C23.8061 13.248 23.7199 13.6093 23.525 14.0327C23.1625 14.8201 22.499 15.0221 21.7983 15.0221M26.0577 10.4614C26.4915 9.86508 26.8754 9.24584 27.2046 8.60573C27.1833 8.55968 27.1616 8.51363 27.14 8.46783C27.4514 8.4055 27.7374 8.37421 27.9974 8.37421C28.2434 8.37421 28.4663 8.4022 28.665 8.45842C28.997 9.7249 28.1119 10.0335 26.0577 10.4614Z" fill="#539256"/>
<path d="M11.1371 21.6396C11.1279 21.6396 11.1186 21.6395 11.1091 21.6395C11.6215 21.4147 12.0806 21.0493 12.433 20.5559C12.9009 19.9008 13.3387 19.6643 13.8378 19.6643C13.9469 19.6643 14.0592 19.6756 14.1753 19.6965C13.8923 19.8436 13.6147 20.096 13.3332 20.4899C12.837 21.1847 12.0781 21.6029 11.2512 21.6372C11.2131 21.6388 11.1752 21.6396 11.1371 21.6396" fill="#A4E3AD"/>
<path d="M18.9987 20.6702C20.1247 20.1508 20.5573 18.7296 20.2221 17.0226C20.0892 16.3459 20.3838 16.1774 20.8843 16.1774C20.9026 16.1774 20.9209 16.1774 20.9394 16.1779C20.8506 16.2168 20.7727 16.2722 20.7072 16.3477C20.4468 16.6481 20.5458 17.0976 20.6429 17.4095C20.9762 18.4791 20.7978 19.525 20.1775 20.1393C19.8578 20.456 19.4552 20.6346 18.9987 20.6702ZM23.4428 16.315C23.3801 16.315 23.3158 16.3135 23.2505 16.3103C23.8455 16.2221 24.3873 15.9368 24.719 15.2159C25.8834 12.6864 23.3942 12.2447 26.3654 11.6424C28.4054 11.2289 29.6497 11.0045 30.0737 10.3779C30.1034 10.6378 30.0468 10.777 29.9937 10.8648C29.7033 11.348 28.6005 11.5708 26.9314 11.908L26.6584 11.9631C25.7064 12.1562 25.2814 12.3408 25.091 12.6444C24.9154 12.9236 24.9904 13.2172 25.0693 13.5283C25.1863 13.9877 25.3318 14.5595 24.9 15.4977C24.6098 16.128 24.0994 16.315 23.4428 16.315" fill="#A4E3AD"/>
<path d="M3.2028 19.2306C3.4481 19.2306 3.63033 19.3058 3.74505 19.4553C3.96749 19.7443 3.83651 20.148 3.68483 20.6154C3.54613 21.0427 3.38889 21.5271 3.55941 21.7864C3.66257 21.9431 3.90317 22.0401 4.27488 22.0749C5.29699 22.1705 5.94453 21.4658 6.51574 20.8436C6.95096 20.3696 7.36079 19.9192 7.88903 19.9324C8.22153 19.9389 8.54031 20.1274 8.86351 20.5087C9.5119 21.2734 10.3599 21.6745 11.2512 21.6371C12.0781 21.6027 12.837 21.1846 13.3333 20.4899C14.3351 19.0875 15.2897 19.4789 16.6112 20.0201C17.0091 20.1831 17.4598 20.3677 17.9767 20.5342C18.8536 20.8165 19.6352 20.6764 20.1775 20.1393C20.7978 19.525 20.9761 18.479 20.643 17.4094C20.5458 17.0976 20.4467 16.6482 20.7074 16.3475C21.0163 15.9912 21.6056 16.0858 22.2881 16.1954C23.4964 16.3894 24.4563 16.4614 24.8998 15.4976C25.332 14.5594 25.1862 13.9874 25.0694 13.528C24.9902 13.2173 24.9155 12.9234 25.0909 12.6442C25.2814 12.3408 25.7063 12.1562 26.6585 11.963L26.9314 11.9079C28.6005 11.5707 29.7032 11.3481 29.9938 10.8649C30.0664 10.7443 30.1459 10.5276 30.0005 10.0364C29.7713 9.26302 29.4319 8.79302 28.932 8.55749C28.1676 8.19743 26.9499 8.36805 25.3137 9.06458C24.4698 9.42358 23.6181 10.1045 22.6319 10.8932C21.0924 12.1236 19.1766 13.6555 16.3023 14.774C12.9416 16.0821 8.99778 16.5521 4.24677 16.2113C3.99205 16.2291 0.979445 16.4744 0.62787 18.1043C0.532782 18.5455 0.563144 18.8592 0.718213 19.0369C1.02501 19.389 1.88416 19.3239 2.64216 19.2664C2.8047 19.2539 2.97264 19.2412 3.13346 19.2325C3.15715 19.2311 3.18025 19.2306 3.2028 19.2306M4.46251 22.6621C4.3839 22.6621 4.30341 22.6584 4.22094 22.6507C3.65799 22.5978 3.28358 22.4189 3.07637 22.104C2.75333 21.6129 2.9648 20.9609 3.13489 20.4369C3.20166 20.231 3.30069 19.9258 3.28501 19.8158C3.26617 19.8114 3.22921 19.8061 3.1647 19.8098C3.01016 19.8181 2.85263 19.8301 2.68582 19.8427C1.74883 19.9137 0.779706 19.9873 0.282467 19.4169C-0.00295345 19.0897 -0.0748322 18.6202 0.0627513 17.9825C0.520753 15.859 4.08094 15.6412 4.2322 15.633C4.24433 15.6324 4.2566 15.6324 4.26873 15.6335C14.8239 16.3949 19.1278 12.9539 22.2708 10.4415C23.2901 9.62652 24.1705 8.92257 25.0874 8.53258C26.9073 7.75816 28.2455 7.59522 29.1784 8.03449C29.8381 8.34553 30.2755 8.9292 30.5547 9.87212C30.7126 10.4052 30.6912 10.8272 30.4893 11.1629C30.0672 11.8642 28.9301 12.0939 27.0459 12.4746L26.7735 12.5297C26.0677 12.6728 25.6666 12.8148 25.5805 12.9518C25.5389 13.0178 25.5723 13.1595 25.6297 13.3855C25.7543 13.8751 25.9426 14.6151 25.4252 15.7395C24.7626 17.1784 23.2183 16.9304 22.1964 16.7661C21.8165 16.7055 21.2423 16.6127 21.1443 16.7261C21.1409 16.7298 21.0659 16.8231 21.1949 17.2375C21.5987 18.5333 21.3703 19.7716 20.5842 20.5501C19.8914 21.2366 18.8762 21.4312 17.7992 21.0845C17.2613 20.9113 16.7996 20.722 16.3921 20.5552C15.0817 20.0183 14.5393 19.7961 13.8037 20.8258C13.2031 21.6668 12.2815 22.1729 11.2753 22.2148C10.2014 22.2591 9.1887 21.7862 8.42257 20.8826C8.21568 20.6387 8.03231 20.5135 7.87748 20.5104C7.87563 20.5104 7.87364 20.5104 7.87163 20.5104C7.60666 20.5104 7.28359 20.8623 6.94155 21.2347C6.38303 21.843 5.63105 22.6621 4.46251 22.6621" fill="#6D184E"/>
<path d="M16.903 17.2478C21.5776 15.2943 25.3043 12.3029 27.2045 8.60575C25.093 4.04048 20.507 0.853905 15.1668 0.767789C7.74781 0.6484 1.57555 6.60831 1.44618 14.0272C1.42392 15.3055 1.58016 16.5433 1.89018 17.719C6.09511 19.8475 11.4996 19.5056 16.903 17.2478Z" fill="#F9A332"/>
<path d="M17.0056 0.922119H17.0053H17.0056ZM16.9916 0.920166C16.9914 0.920166 16.9914 0.919889 16.9911 0.919889C16.9914 0.919889 16.9914 0.920166 16.9916 0.920166ZM16.9844 0.919053C16.9841 0.919053 16.9844 0.919051 16.9841 0.918772L16.9844 0.919053ZM16.9777 0.917936C16.9774 0.917936 16.9771 0.917937 16.9766 0.917658C16.9771 0.917937 16.9774 0.917936 16.9777 0.917936ZM16.9702 0.916819H16.9699H16.9702ZM16.949 0.913753C16.9487 0.913474 16.9487 0.913475 16.9484 0.913475C16.9487 0.913475 16.9487 0.913474 16.949 0.913753ZM16.9141 0.908453C16.9138 0.908453 16.9136 0.908453 16.9133 0.908453C16.9136 0.908453 16.9138 0.908453 16.9141 0.908453ZM16.908 0.907617C16.9071 0.907617 16.9066 0.907339 16.906 0.907339C16.9066 0.907339 16.9071 0.907617 16.908 0.907617ZM16.901 0.906503C16.9002 0.906503 16.8993 0.906223 16.8988 0.906223C16.8996 0.906502 16.8999 0.906503 16.901 0.906503ZM16.8946 0.905664C16.8932 0.905386 16.8924 0.905388 16.891 0.905109C16.8921 0.905388 16.8935 0.905386 16.8946 0.905664ZM16.8876 0.904551C16.8862 0.904551 16.8851 0.904271 16.8837 0.903992C16.8851 0.904271 16.8859 0.904272 16.8876 0.904551ZM16.8801 0.903434C16.8787 0.903434 16.8779 0.903156 16.8765 0.903156C16.8776 0.903156 16.8787 0.903434 16.8801 0.903434ZM16.8726 0.902598C16.8712 0.902319 16.8706 0.902318 16.8692 0.90204C16.8703 0.90204 16.8712 0.902319 16.8726 0.902598ZM16.8656 0.901481C16.8642 0.901202 16.8628 0.901205 16.8614 0.900926C16.8628 0.901205 16.8639 0.901202 16.8656 0.901481ZM16.8581 0.900367C16.8569 0.900367 16.8556 0.900088 16.8542 0.899809C16.8558 0.900088 16.8567 0.900367 16.8581 0.900367ZM16.8508 0.899251C16.8497 0.899251 16.8483 0.898973 16.8472 0.898973C16.8483 0.898973 16.8497 0.899251 16.8508 0.899251ZM16.8433 0.898415C16.8419 0.898136 16.8411 0.898135 16.8399 0.897856C16.8411 0.898135 16.8422 0.898136 16.8433 0.898415ZM16.836 0.897298C16.8346 0.897019 16.833 0.897021 16.8316 0.896743C16.8332 0.897021 16.8344 0.897019 16.836 0.897298ZM16.8288 0.896462C16.8268 0.895904 16.8252 0.895906 16.8229 0.895348C16.8252 0.895906 16.8268 0.895904 16.8288 0.896462ZM16.8215 0.895348C16.819 0.895069 16.8171 0.894789 16.8146 0.894232C16.8168 0.89451 16.8193 0.895069 16.8215 0.895348ZM16.8129 0.894232C16.8107 0.893674 16.809 0.893673 16.8067 0.893115C16.8087 0.893394 16.8109 0.893953 16.8129 0.894232ZM16.8048 0.893115C16.8031 0.892836 16.8015 0.892558 16.7992 0.892279C16.8015 0.892558 16.8028 0.892836 16.8048 0.893115ZM16.797 0.892001C16.7956 0.891722 16.7936 0.891444 16.792 0.891165C16.7939 0.891444 16.7953 0.891722 16.797 0.892001ZM16.7892 0.890885C16.7875 0.890606 16.7864 0.890326 16.7847 0.890326C16.7861 0.890326 16.7878 0.890606 16.7892 0.890885ZM16.7819 0.889771C16.7803 0.889492 16.7789 0.889491 16.7772 0.889212C16.7789 0.889491 16.7803 0.889492 16.7819 0.889771ZM16.7747 0.888932C16.773 0.888653 16.7711 0.888375 16.7697 0.888096C16.7711 0.888375 16.7733 0.888653 16.7747 0.888932ZM16.7677 0.887818C16.7658 0.887539 16.7641 0.887539 16.7621 0.88726C16.7641 0.887539 16.7658 0.887539 16.7677 0.887818ZM16.7599 0.886982C16.7582 0.886703 16.7566 0.886422 16.7546 0.886143C16.7566 0.886422 16.7582 0.886703 16.7599 0.886982ZM16.7526 0.885865C16.7507 0.885586 16.749 0.885308 16.7473 0.885029C16.749 0.885308 16.7507 0.885586 16.7526 0.885865ZM16.7451 0.884749C16.7432 0.884749 16.7412 0.884472 16.7395 0.884193C16.7412 0.884472 16.7434 0.884749 16.7451 0.884749ZM16.7379 0.883913C16.7359 0.883634 16.7342 0.883355 16.7317 0.883077C16.734 0.883355 16.7359 0.883634 16.7379 0.883913ZM16.7303 0.882799C16.7278 0.88252 16.7259 0.882239 16.7234 0.88196C16.7256 0.882239 16.7281 0.88252 16.7303 0.882799ZM16.7234 0.88196C16.7209 0.881681 16.7183 0.881403 16.7158 0.881124C16.7183 0.881403 16.7206 0.881681 16.7234 0.88196ZM16.7158 0.881124C16.7005 0.878893 16.6857 0.876942 16.6704 0.875269C16.6854 0.876942 16.7005 0.878893 16.7158 0.881124ZM16.6698 0.874988C16.6673 0.874709 16.6654 0.874431 16.6628 0.874152C16.6648 0.874431 16.6676 0.874709 16.6698 0.874988ZM16.6623 0.874152C16.6598 0.873873 16.6576 0.873595 16.655 0.873316C16.6576 0.873595 16.6601 0.873873 16.6623 0.874152ZM16.655 0.873038C16.6497 0.87248 16.645 0.871921 16.64 0.871363C16.645 0.871921 16.6497 0.87248 16.655 0.873038ZM16.6394 0.871363C16.6372 0.870805 16.635 0.870528 16.6322 0.870249C16.635 0.870528 16.6369 0.870805 16.6394 0.871363ZM16.6322 0.870249C16.6297 0.86997 16.6274 0.869689 16.6249 0.869411C16.6272 0.869689 16.6299 0.86997 16.6322 0.870249ZM16.6246 0.869411C16.2116 0.818097 15.7933 0.785469 15.37 0.772362C15.7933 0.785469 16.2119 0.818097 16.6246 0.869411ZM15.3697 0.772362C15.3671 0.772362 15.3647 0.772362 15.3621 0.772362C15.3645 0.772362 15.3672 0.772362 15.3697 0.772362ZM15.3618 0.772362C15.3593 0.772083 15.357 0.772084 15.3544 0.772084C15.3568 0.772084 15.3594 0.772083 15.3618 0.772362ZM15.3541 0.772084C15.3516 0.771806 15.3494 0.771804 15.3469 0.771804C15.349 0.771804 15.352 0.771806 15.3541 0.772084ZM15.346 0.771804C15.344 0.771804 15.3413 0.771526 15.3393 0.771526C15.3414 0.771526 15.3439 0.771804 15.346 0.771804ZM15.3382 0.771526C15.3362 0.771526 15.3334 0.771527 15.3316 0.771248C15.3336 0.771527 15.336 0.771526 15.3382 0.771526ZM15.3304 0.771248C15.3279 0.771248 15.326 0.771248 15.3234 0.771248C15.3259 0.771248 15.328 0.771248 15.3304 0.771248ZM15.3229 0.771248C15.3206 0.77097 15.318 0.770968 15.3157 0.770968C15.3179 0.770968 15.3207 0.77097 15.3229 0.771248ZM15.315 0.770968C15.2995 0.77041 15.2842 0.770133 15.2687 0.769854C15.2842 0.770133 15.2995 0.77041 15.315 0.770968ZM15.2677 0.769574C15.2654 0.769574 15.2629 0.769574 15.2607 0.769574C15.2632 0.769574 15.2652 0.769574 15.2677 0.769574ZM15.2602 0.769574C15.2575 0.769574 15.2558 0.769296 15.2532 0.769296C15.2557 0.769296 15.2578 0.769574 15.2602 0.769574ZM15.2517 0.769296C15.2497 0.769296 15.2475 0.769296 15.2455 0.769296C15.2477 0.769296 15.2495 0.769296 15.2517 0.769296ZM15.2438 0.769296C15.2418 0.769017 15.24 0.769015 15.238 0.769015C15.2398 0.769015 15.242 0.769017 15.2438 0.769296ZM15.236 0.769015C15.2341 0.769015 15.2323 0.769015 15.2304 0.769015C15.2321 0.769015 15.2341 0.769015 15.236 0.769015ZM15.2281 0.768737C15.2264 0.768737 15.2247 0.768737 15.2232 0.768737C15.225 0.768737 15.2263 0.768737 15.2281 0.768737ZM15.2201 0.768737C15.2186 0.768737 15.217 0.768739 15.2154 0.76846C15.217 0.768739 15.2187 0.768737 15.2201 0.768737ZM15.2126 0.76846C15.211 0.76846 15.2093 0.76846 15.2077 0.76846C15.2092 0.76846 15.211 0.76846 15.2126 0.76846ZM15.205 0.76846C15.2034 0.76846 15.2017 0.768179 15.2 0.768179C15.2019 0.768179 15.2032 0.76846 15.205 0.76846ZM15.1973 0.768179C15.1956 0.768179 15.1943 0.768179 15.1928 0.768179C15.1943 0.768179 15.1957 0.768179 15.1973 0.768179ZM15.1896 0.768179C15.188 0.768179 15.1865 0.76818 15.1849 0.767901C15.1863 0.76818 15.188 0.768179 15.1896 0.768179ZM15.182 0.767901C15.18 0.767901 15.1781 0.767901 15.1762 0.767901C15.1783 0.767901 15.1799 0.767901 15.182 0.767901ZM15.1745 0.767901C15.1719 0.767901 15.1695 0.7679 15.1668 0.767621C15.1692 0.7679 15.1721 0.767901 15.1745 0.767901ZM15.1668 0.767621C15.1601 0.767621 15.1531 0.767622 15.1464 0.767343C15.1532 0.767622 15.1599 0.767621 15.1668 0.767621ZM14.844 0.766226C14.8617 0.766226 14.8794 0.765949 14.8971 0.765949C14.8991 0.765949 14.9011 0.765949 14.9031 0.765949C14.8832 0.766228 14.8638 0.766226 14.844 0.766226Z" fill="#FFF6AF"/>
<path d="M2.80188 8.3811C4.98139 3.91772 9.55176 0.827235 14.7934 0.767556C14.8102 0.766998 14.8269 0.766718 14.8439 0.766439C14.8637 0.766439 14.8831 0.766162 14.903 0.766162C14.9044 0.766162 14.9057 0.766162 14.9071 0.766162C14.9215 0.766162 14.9359 0.766162 14.9505 0.766162C15.0155 0.766162 15.0809 0.766719 15.1463 0.767556C15.1529 0.767556 15.1599 0.767834 15.1667 0.767834C15.1694 0.767834 15.1718 0.767835 15.1744 0.768114C15.1749 0.768114 15.1754 0.768114 15.1761 0.768114C15.1779 0.768114 15.1799 0.768114 15.1819 0.768114C15.1828 0.768114 15.1838 0.768114 15.1848 0.768114C15.1864 0.768114 15.1879 0.768113 15.1895 0.768392C15.1903 0.768392 15.1916 0.768392 15.1926 0.768392C15.1942 0.768392 15.1955 0.768392 15.1972 0.768392C15.198 0.768392 15.199 0.768392 15.1999 0.768392C15.2016 0.768392 15.2033 0.768394 15.2049 0.768673C15.2059 0.768673 15.2066 0.768673 15.2076 0.768673C15.2092 0.768673 15.2109 0.768673 15.2125 0.768673C15.2135 0.768673 15.2145 0.768673 15.2153 0.768673C15.2169 0.768673 15.2185 0.768672 15.22 0.76895C15.221 0.76895 15.2222 0.76895 15.223 0.76895C15.2246 0.76895 15.2263 0.76895 15.228 0.76895C15.2286 0.76895 15.2296 0.76895 15.2303 0.76895C15.2321 0.76895 15.234 0.769228 15.2359 0.769228C15.2369 0.769228 15.237 0.769228 15.2379 0.769228C15.2399 0.769228 15.2417 0.769228 15.2437 0.769228C15.2443 0.769228 15.2448 0.769228 15.2454 0.769228C15.2474 0.769507 15.2495 0.769509 15.2516 0.769509C15.2518 0.769509 15.2528 0.769509 15.2531 0.769509C15.2557 0.769509 15.2574 0.769508 15.2601 0.769787H15.2606C15.2628 0.769787 15.2652 0.769787 15.2675 0.769787C15.2678 0.769787 15.2681 0.769787 15.2685 0.769787C15.2841 0.770344 15.2994 0.770623 15.3149 0.771181C15.3152 0.771181 15.3153 0.771181 15.3156 0.771181C15.3179 0.771181 15.3205 0.771181 15.3228 0.771181C15.3231 0.771181 15.3231 0.771181 15.3233 0.771181C15.3259 0.77146 15.3277 0.771461 15.3303 0.771461C15.3306 0.771461 15.331 0.771461 15.3315 0.771461C15.3333 0.771461 15.336 0.771739 15.338 0.771739C15.3383 0.771739 15.3389 0.771739 15.3392 0.771739C15.3412 0.771739 15.3439 0.771738 15.3459 0.772017C15.3465 0.772017 15.3462 0.772017 15.3467 0.772017C15.3493 0.772017 15.3515 0.772019 15.354 0.772297C15.3543 0.772297 15.3539 0.772019 15.3543 0.772297C15.3569 0.772297 15.3591 0.772297 15.3617 0.772297H15.362C15.3646 0.772576 15.367 0.772575 15.3696 0.772575C15.3699 0.772575 15.3694 0.772575 15.3699 0.772575C15.7932 0.785682 16.2115 0.81831 16.6245 0.869623H16.6248C16.6273 0.869902 16.6295 0.870183 16.632 0.870462C16.6348 0.870741 16.637 0.871019 16.6395 0.871298L16.6401 0.871576C16.6448 0.872133 16.6496 0.872693 16.6549 0.873251C16.6574 0.873808 16.6596 0.873807 16.6621 0.874364C16.6624 0.874364 16.6624 0.874364 16.6627 0.874364C16.6652 0.874643 16.6672 0.874922 16.6697 0.8752C16.6699 0.8752 16.6699 0.8752 16.6702 0.8752C16.6856 0.877153 16.7006 0.879106 16.7157 0.881058C16.7182 0.881616 16.7207 0.881893 16.7232 0.882172C16.7257 0.882451 16.7277 0.882732 16.7302 0.883011C16.7305 0.883011 16.7316 0.883289 16.7318 0.883289C16.7341 0.883568 16.7358 0.883846 16.738 0.884125C16.7385 0.884125 16.7385 0.884127 16.7394 0.884405C16.7411 0.884405 16.743 0.884682 16.745 0.884961C16.7458 0.88524 16.7464 0.885242 16.7472 0.885242C16.7489 0.88552 16.7505 0.885799 16.7525 0.886078C16.753 0.886078 16.7539 0.886355 16.7544 0.886355C16.7567 0.886634 16.7581 0.886914 16.7597 0.886914C16.7603 0.887193 16.7614 0.887194 16.762 0.887194C16.7639 0.887473 16.7656 0.887751 16.7675 0.88803C16.7681 0.88803 16.7689 0.888308 16.7695 0.888308C16.7709 0.888587 16.7728 0.888865 16.7745 0.889144C16.7754 0.889144 16.7762 0.889146 16.777 0.889425C16.7787 0.889704 16.7801 0.889704 16.7818 0.889983C16.7829 0.890262 16.7834 0.890261 16.7846 0.890261C16.7862 0.89054 16.7873 0.890818 16.789 0.891097C16.7899 0.891097 16.791 0.891377 16.7921 0.891377C16.7935 0.891656 16.7954 0.891933 16.7968 0.891933C16.7974 0.892212 16.7988 0.892212 16.7993 0.892491C16.8013 0.89277 16.803 0.892771 16.8049 0.89305C16.8055 0.893328 16.806 0.893327 16.8066 0.893327C16.8088 0.893606 16.8108 0.893887 16.8127 0.894166C16.8133 0.894166 16.8141 0.894444 16.8144 0.894444C16.8169 0.894723 16.8189 0.895003 16.8214 0.89556C16.8219 0.89556 16.8222 0.89556 16.8228 0.89556C16.825 0.895839 16.8267 0.896118 16.8289 0.896397C16.8295 0.896675 16.8306 0.896676 16.8314 0.896955C16.8328 0.896955 16.8345 0.897232 16.8361 0.89751C16.8373 0.897789 16.8387 0.89779 16.8398 0.898069C16.8412 0.898069 16.842 0.898349 16.8431 0.898349C16.8442 0.898628 16.8459 0.898905 16.847 0.898905C16.8484 0.899184 16.8495 0.899463 16.8507 0.899463C16.8518 0.899742 16.8529 0.899742 16.8543 0.900021C16.8554 0.9003 16.8568 0.900301 16.8579 0.90058C16.859 0.900859 16.8604 0.900859 16.8612 0.901138C16.8626 0.901138 16.864 0.901415 16.8654 0.901694C16.8665 0.901694 16.8679 0.901973 16.8691 0.902252C16.8705 0.902252 16.871 0.902532 16.8724 0.902532C16.8735 0.902811 16.8752 0.903088 16.8763 0.903088C16.8777 0.903367 16.8785 0.903646 16.8799 0.903646C16.881 0.903925 16.8824 0.904204 16.8838 0.904204C16.885 0.904483 16.8861 0.904484 16.8875 0.904763C16.8886 0.905042 16.8897 0.905042 16.8908 0.905321C16.8922 0.9056 16.893 0.905598 16.8944 0.905877C16.8955 0.905877 16.8975 0.906156 16.8986 0.906435C16.8992 0.906435 16.9 0.906715 16.9008 0.906715C16.9025 0.906994 16.9042 0.907273 16.9059 0.907552C16.9064 0.907552 16.907 0.90755 16.9078 0.907829C16.9095 0.908108 16.9114 0.908387 16.9131 0.908665C16.9134 0.908665 16.9137 0.908665 16.914 0.908665C16.9251 0.910339 16.9371 0.912014 16.9483 0.913687C16.9485 0.913687 16.9485 0.913687 16.9488 0.913687C16.9536 0.914524 16.9583 0.915081 16.963 0.915918C16.9653 0.916197 16.9675 0.916474 16.9697 0.917032H16.9703C16.9722 0.91731 16.9745 0.917592 16.9767 0.91787C16.977 0.91787 16.9773 0.918148 16.9775 0.918148C16.9798 0.918427 16.9814 0.918705 16.984 0.918984C16.9842 0.918984 16.984 0.918984 16.9842 0.918984C16.9867 0.919542 16.9884 0.919822 16.9909 0.920101C16.9912 0.920101 16.9912 0.920101 16.9915 0.920101C16.9937 0.920659 16.9962 0.920936 16.9982 0.921215C17.0007 0.921494 17.0029 0.922052 17.0051 0.922331H17.0054C21.2295 1.56932 24.8083 4.17429 26.7881 7.78125C24.4899 4.5714 20.9139 2.33957 16.8041 1.82672C16.7171 2.3234 15.8966 2.71298 14.897 2.71298C13.9149 2.71298 13.106 2.33706 12.9953 1.85294C10.5717 2.19121 8.33073 3.13464 6.43547 4.52622C6.43888 4.51981 6.44231 4.51368 6.4456 4.50726V4.50754C6.42577 4.52567 6.40605 4.54407 6.38636 4.56248C4.97554 5.60742 3.75808 6.90223 2.80188 8.3811" fill="#FCD199"/>
<path d="M16.9027 17.2478C16.907 17.2459 16.9112 17.2443 16.9155 17.2424C16.9112 17.2443 16.9068 17.2459 16.9027 17.2478ZM16.919 17.2409C16.9222 17.2396 16.925 17.2385 16.9281 17.2372C16.9248 17.2385 16.9224 17.2396 16.919 17.2409ZM16.9322 17.2354C16.9352 17.2341 16.9387 17.2328 16.9415 17.2315C16.9385 17.2328 16.9353 17.2341 16.9322 17.2354ZM16.9448 17.2302C16.9491 17.2283 16.9528 17.2267 16.957 17.225C16.9531 17.2267 16.9489 17.2285 16.9448 17.2302ZM16.9576 17.2248C16.962 17.223 16.9663 17.2211 16.9709 17.2193C16.9665 17.2211 16.962 17.223 16.9576 17.2248ZM16.9717 17.2189C16.9756 17.2172 16.9798 17.2155 16.9837 17.2137C16.9797 17.2155 16.9758 17.2172 16.9717 17.2189ZM16.9861 17.2128C16.99 17.2113 16.9934 17.2098 16.9973 17.2081C16.9936 17.2096 16.9898 17.2113 16.9861 17.2128ZM16.9991 17.2072C17.0034 17.2055 17.0075 17.2039 17.0117 17.202C17.0076 17.2039 17.0034 17.2055 16.9991 17.2072ZM17.0121 17.2018C17.0214 17.1979 17.0299 17.1942 17.039 17.1903C17.0301 17.1942 17.0212 17.1979 17.0121 17.2018ZM17.0401 17.19C17.0442 17.1883 17.0482 17.1864 17.0523 17.1848C17.0481 17.1864 17.0444 17.1883 17.0401 17.19ZM17.0536 17.1842C17.0716 17.1766 17.0894 17.169 17.1074 17.1614C17.0894 17.169 17.0716 17.1766 17.0536 17.1842ZM17.1078 17.161C17.1485 17.1436 17.1888 17.1264 17.2296 17.1089C17.189 17.1264 17.1484 17.1438 17.1078 17.161ZM17.2301 17.1086C17.2481 17.1008 17.2657 17.0932 17.2837 17.0854C17.2659 17.093 17.2479 17.101 17.2301 17.1086ZM17.2843 17.085C17.3021 17.0774 17.3199 17.0696 17.3377 17.0618C17.3199 17.0696 17.3021 17.0774 17.2843 17.085ZM17.3388 17.0613C17.3562 17.0537 17.3742 17.0457 17.3918 17.0381C17.374 17.0459 17.3566 17.0535 17.3388 17.0613ZM17.3931 17.0376C17.3968 17.0359 17.4011 17.034 17.405 17.0322C17.4012 17.034 17.3968 17.0359 17.3931 17.0376ZM17.4061 17.0318C17.419 17.0261 17.4326 17.0201 17.4456 17.0144C17.4326 17.0201 17.4192 17.0261 17.4061 17.0318ZM17.4472 17.0136C17.4513 17.0118 17.4545 17.0105 17.4583 17.0086C17.4548 17.0103 17.4509 17.012 17.4472 17.0136ZM17.4606 17.0077C17.4648 17.0059 17.4687 17.0042 17.473 17.0023C17.4687 17.0042 17.465 17.0059 17.4606 17.0077ZM17.473 17.0022C17.4817 16.9983 17.4906 16.9944 17.4993 16.9907C17.4906 16.9944 17.4817 16.9983 17.473 17.0022ZM17.5015 16.9895C17.5051 16.9881 17.5088 16.9864 17.5121 16.9849C17.5088 16.9864 17.5051 16.9881 17.5015 16.9895ZM17.5145 16.9838C17.5182 16.9821 17.5216 16.9806 17.5253 16.979C17.5219 16.9806 17.518 16.9821 17.5145 16.9838ZM17.5277 16.9779C17.5362 16.9742 17.5444 16.9704 17.5527 16.9667C17.5444 16.9704 17.5362 16.9742 17.5277 16.9779ZM17.5566 16.9651C17.5596 16.9636 17.5624 16.9623 17.5655 16.961C17.5625 16.9623 17.5594 16.9638 17.5566 16.9651ZM17.5694 16.9593C17.5722 16.958 17.5751 16.9567 17.5779 16.9554C17.575 16.9567 17.5724 16.9578 17.5694 16.9593ZM17.582 16.9536C17.5853 16.9521 17.5887 16.9506 17.592 16.9491C17.5889 16.9504 17.5852 16.9523 17.582 16.9536ZM17.5944 16.948C17.5983 16.9462 17.603 16.9441 17.6069 16.9425C17.6028 16.9443 17.5985 16.9462 17.5944 16.948ZM17.61 16.9412C17.6132 16.9397 17.6159 16.9384 17.6191 16.9371C17.6161 16.9384 17.613 16.9399 17.61 16.9412ZM17.6237 16.9349C17.6261 16.9337 17.6285 16.9326 17.6311 16.9315C17.6285 16.9326 17.6261 16.9337 17.6237 16.9349ZM17.6367 16.9291C17.6389 16.9282 17.641 16.9271 17.6434 16.9261C17.641 16.9271 17.6389 16.928 17.6367 16.9291ZM17.6489 16.9235C17.6508 16.9226 17.653 16.9217 17.6551 16.9208C17.6528 16.9217 17.651 16.9226 17.6489 16.9235ZM17.6669 16.9154C17.6688 16.9145 17.6704 16.9139 17.6721 16.913C17.6706 16.9137 17.6686 16.9146 17.6669 16.9154ZM17.6792 16.9098C17.6806 16.9093 17.6825 16.9083 17.6838 16.9076C17.6823 16.9083 17.6806 16.9091 17.6792 16.9098ZM17.6912 16.9043C17.6927 16.9037 17.6942 16.903 17.6955 16.9024C17.6942 16.903 17.6927 16.9037 17.6912 16.9043ZM17.7034 16.8987C17.7038 16.8987 17.7042 16.8985 17.7044 16.8983C17.7042 16.8985 17.7038 16.8987 17.7034 16.8987ZM17.7353 16.8842C17.7357 16.8841 17.7361 16.8841 17.7366 16.8837C17.7363 16.8839 17.7357 16.8841 17.7353 16.8842ZM17.7468 16.879L17.7472 16.8789L17.7468 16.879Z" fill="#5B6D54"/>
<path d="M8.24785 19.1414C7.21362 19.1414 6.20648 19.048 5.23743 18.8569C4.75925 18.7387 4.29079 18.5965 3.83417 18.4274C2.99241 18.1158 2.38952 17.3691 2.25267 16.482C2.13681 15.7304 2.08286 14.9586 2.09657 14.1718C2.16262 10.3822 3.80619 6.97463 6.38642 4.56236C6.40281 4.55008 6.41908 4.53806 6.43551 4.52604C5.45748 6.3502 4.88582 8.42352 4.84745 10.6258C4.84674 10.6672 4.84615 10.7087 4.84587 10.7501C4.82632 13.0605 6.46889 15.0456 8.73916 15.4764C9.67667 15.6542 10.6489 15.7409 11.6467 15.7409C14.4024 15.7409 17.3537 15.0791 20.3041 13.8464C22.3982 12.9713 24.3011 11.8872 25.9358 10.6255C24.0162 13.1887 21.1634 15.3198 17.7473 16.8787L17.7468 16.879C17.7435 16.8805 17.7402 16.8821 17.7366 16.8836C17.7361 16.8839 17.7358 16.8841 17.7353 16.8841C17.7248 16.889 17.7149 16.8936 17.7044 16.8982C17.7041 16.8984 17.7039 16.8987 17.7036 16.8987C17.7008 16.9 17.6982 16.901 17.6957 16.9023C17.6941 16.9028 17.6926 16.9035 17.6913 16.9041C17.6888 16.9053 17.6865 16.9064 17.6839 16.9076C17.6826 16.9082 17.6806 16.9092 17.679 16.9097C17.6765 16.9107 17.6747 16.9117 17.6721 16.9128C17.6704 16.9138 17.6688 16.9143 17.667 16.9153C17.6629 16.9169 17.6591 16.9189 17.655 16.9207C17.653 16.9215 17.6509 16.9225 17.6489 16.9235C17.6471 16.9243 17.645 16.925 17.6432 16.9261C17.6409 16.9271 17.6389 16.9279 17.6368 16.9289C17.6351 16.9296 17.633 16.9304 17.6312 16.9314C17.6287 16.9325 17.6261 16.9337 17.6238 16.9348C17.6223 16.9355 17.6207 16.936 17.6192 16.9371C17.6159 16.9383 17.6131 16.9396 17.61 16.9409C17.6087 16.9414 17.6079 16.9419 17.6069 16.9424C17.6031 16.944 17.5985 16.946 17.5946 16.9481C17.5936 16.9483 17.5931 16.9486 17.5921 16.9488C17.5887 16.9506 17.5854 16.9519 17.5821 16.9534C17.5808 16.9539 17.5793 16.9547 17.578 16.9555C17.5752 16.9568 17.5724 16.958 17.5693 16.9593C17.568 16.9598 17.5667 16.9603 17.5655 16.9609C17.5624 16.9621 17.5596 16.9634 17.5565 16.9649C17.5555 16.9655 17.554 16.966 17.5527 16.9667C17.5442 16.9703 17.5361 16.9742 17.5279 16.9777C17.5268 16.9782 17.5261 16.9785 17.5253 16.979C17.5217 16.9805 17.5184 16.9821 17.5146 16.9836C17.5138 16.9841 17.513 16.9844 17.5123 16.9846C17.5087 16.9862 17.5051 16.988 17.5018 16.9895C17.5007 16.9898 17.5002 16.99 17.4995 16.9905C17.4908 16.9944 17.4818 16.9982 17.4731 17.002H17.4729C17.4688 17.0041 17.4649 17.0056 17.4606 17.0077C17.4601 17.0079 17.4591 17.0082 17.4583 17.0087C17.4544 17.0102 17.4514 17.0118 17.4473 17.0135C17.4465 17.0138 17.4463 17.0141 17.4455 17.0143C17.4327 17.0199 17.4191 17.0261 17.4061 17.0317C17.4056 17.032 17.4056 17.032 17.4051 17.0322C17.401 17.0338 17.3969 17.0358 17.3931 17.0373C17.3925 17.0376 17.3923 17.0378 17.3918 17.0378C17.3741 17.0458 17.3562 17.0535 17.3388 17.0611C17.3386 17.0614 17.3378 17.0616 17.3378 17.0619C17.3199 17.0696 17.3022 17.0772 17.2843 17.0849C17.2841 17.0852 17.2841 17.0852 17.2838 17.0852C17.2657 17.0931 17.2483 17.1005 17.2301 17.1085C17.2299 17.1087 17.2296 17.1087 17.2296 17.1087C17.1889 17.1264 17.1485 17.1435 17.1078 17.1609L17.1073 17.1611C17.0894 17.1688 17.0715 17.1765 17.0536 17.1842C17.0531 17.1842 17.0528 17.1844 17.0523 17.1847C17.0482 17.1865 17.0441 17.188 17.04 17.1898C17.0398 17.1901 17.0393 17.1903 17.039 17.1903C17.0298 17.1941 17.0214 17.1977 17.0122 17.2016C17.0122 17.2018 17.0122 17.2018 17.0116 17.2018C17.0076 17.2036 17.0035 17.2054 16.9991 17.2072C16.9986 17.2074 16.9981 17.2077 16.9973 17.208C16.9935 17.2098 16.9902 17.211 16.9861 17.2126C16.9853 17.2128 16.9845 17.2133 16.9838 17.2136C16.9799 17.2154 16.9756 17.2172 16.9717 17.2187C16.9715 17.2187 16.9712 17.219 16.971 17.219C16.9664 17.221 16.962 17.2228 16.9577 17.2246C16.9572 17.2248 16.9572 17.2248 16.9572 17.2248C16.9528 17.2266 16.9492 17.2282 16.9449 17.23C16.9436 17.2305 16.9426 17.231 16.9416 17.2312C16.9387 17.2325 16.9352 17.2341 16.9323 17.2353C16.9311 17.2358 16.9295 17.2364 16.9283 17.2371C16.9249 17.2384 16.9221 17.2394 16.919 17.241C16.9178 17.2412 16.9165 17.242 16.9155 17.2422C16.9111 17.2443 16.907 17.2458 16.9027 17.2476C13.9527 18.4803 11.003 19.1414 8.24785 19.1414Z" fill="#BF6700"/>
<path d="M6.38647 4.56226C6.40616 4.54383 6.42586 4.52566 6.4457 4.50749V4.50723C6.44239 4.51363 6.43899 4.51977 6.43556 4.52617C6.41916 4.5382 6.40288 4.55023 6.38647 4.56226Z" fill="#D19982"/>
<path d="M8.32134 5.92724C8.18149 6.36691 7.93992 6.6887 7.78609 6.63988C7.63227 6.5908 7.62087 6.18882 7.76069 5.74889C7.90038 5.30921 8.1421 4.98742 8.29594 5.03625C8.44006 5.08229 8.46091 5.43899 8.34345 5.85362L8.32134 5.92724" fill="#FCE69F"/>
<path d="M10.6041 6.21048C10.5252 6.66536 10.3294 7.01681 10.1703 6.9892C10.0114 6.96159 9.94544 6.5647 10.0243 6.11007C10.1034 5.65519 10.2992 5.30373 10.4581 5.33135C10.6072 5.3572 10.6762 5.7079 10.6161 6.13467L10.6041 6.21048Z" fill="#FCE69F"/>
<path d="M13.5512 6.11907C13.6155 6.57618 13.5369 6.97079 13.377 6.99313C13.2171 7.01572 13.0328 6.65801 12.9686 6.2009C12.9043 5.74404 12.9831 5.34943 13.1428 5.32709C13.2926 5.306 13.4659 5.61853 13.5394 6.04326L13.5512 6.11907Z" fill="#FCE69F"/>
<path d="M16.0156 5.17388C16.2599 5.56543 16.3478 5.958 16.211 6.04342C16.0742 6.12884 15.7604 5.87667 15.5164 5.48512C15.2719 5.09357 15.1839 4.701 15.3208 4.61558C15.4491 4.53553 15.7343 4.75112 15.9737 5.10943L16.0156 5.17388" fill="#FCE69F"/>
<path d="M17.9058 3.60658C18.2332 3.93214 18.4085 4.2942 18.2945 4.40871C18.1805 4.52296 17.818 4.3492 17.4908 4.02364C17.1637 3.69808 16.9881 3.33603 17.102 3.22151C17.2089 3.1144 17.5355 3.25907 17.8508 3.55316L17.9058 3.60658Z" fill="#FCE69F"/>
<path d="M8.62529 13.3904C8.47166 13.3904 8.34753 13.266 8.34753 13.1126C8.34753 12.959 8.47166 12.8347 8.62529 12.8347C8.77871 12.8347 8.90304 12.959 8.90304 13.1126C8.90304 13.266 8.77871 13.3904 8.62529 13.3904Z" fill="#BF6700"/>
<path d="M13.1066 10.751C12.9532 10.751 12.8287 10.6265 12.8287 10.4731C12.8287 10.3195 12.9532 10.1951 13.1066 10.1951C13.26 10.1951 13.3844 10.3195 13.3844 10.4731C13.3844 10.6265 13.26 10.751 13.1066 10.751Z" fill="#BF6700"/>
<path d="M14.0248 13.6426C13.8712 13.6426 13.7469 13.5182 13.7469 13.3649C13.7469 13.2114 13.8712 13.087 14.0248 13.087C14.1781 13.087 14.3025 13.2114 14.3025 13.3649C14.3025 13.5182 14.1781 13.6426 14.0248 13.6426Z" fill="#E99335"/>
<path d="M16.7061 10.2415C16.5525 10.2415 16.4283 10.117 16.4283 9.9635C16.4283 9.81018 16.5525 9.68578 16.7061 9.68578C16.8596 9.68578 16.984 9.81018 16.984 9.9635C16.984 10.117 16.8596 10.2415 16.7061 10.2415Z" fill="#E99335"/>
<path d="M19.5744 12.5154C19.4209 12.5154 19.2965 12.3909 19.2965 12.2377C19.2965 12.084 19.4209 11.9598 19.5744 11.9598C19.7281 11.9598 19.8525 12.084 19.8525 12.2377C19.8525 12.3909 19.7281 12.5154 19.5744 12.5154Z" fill="#BF6700"/>
<path d="M19.946 8.31128C19.7926 8.31128 19.6682 8.18691 19.6682 8.03351C19.6682 7.87988 19.7926 7.75551 19.946 7.75551C20.0996 7.75551 20.2237 7.87988 20.2237 8.03351C20.2237 8.18691 20.0996 8.31128 19.946 8.31128Z" fill="#BF6700"/>
<path d="M21.9432 5.93018C21.7898 5.93018 21.6653 5.80588 21.6653 5.65251C21.6653 5.49914 21.7898 5.37459 21.9432 5.37459C22.0966 5.37459 22.2211 5.49914 22.2211 5.65251C22.2211 5.80588 22.0966 5.93018 21.9432 5.93018Z" fill="#BF6700"/>
<path d="M8.68079 10.5049C8.5274 10.5049 8.40295 10.3805 8.40295 10.2269C8.40295 10.0736 8.5274 9.94921 8.68079 9.94921C8.83432 9.94921 8.95876 10.0736 8.95876 10.2269C8.95876 10.3805 8.83432 10.5049 8.68079 10.5049Z" fill="#E99335"/>
<path d="M24.6686 8.54712C24.5152 8.54712 24.3909 8.42281 24.3909 8.26941C24.3909 8.11602 24.5152 7.99147 24.6686 7.99147C24.8222 7.99147 24.9465 8.11602 24.9465 8.26941C24.9465 8.42281 24.8222 8.54712 24.6686 8.54712Z" fill="#BF6700"/>
<path d="M22.8671 11.5815C22.7137 11.5815 22.5891 11.457 22.5891 11.3036C22.5891 11.1502 22.7137 11.0259 22.8671 11.0259C23.0205 11.0259 23.1448 11.1502 23.1448 11.3036C23.1448 11.457 23.0205 11.5815 22.8671 11.5815Z" fill="#E99335"/>
<path d="M14.9464 1.0552C7.76648 1.0552 1.86074 6.83225 1.73518 14.0323C1.72189 14.7961 1.77427 15.5633 1.891 16.3125C2.01141 17.0858 2.53826 17.7344 3.26616 18.0053C7.04428 19.4107 11.8476 19.0468 16.7913 16.981C20.9891 15.2269 24.2485 12.7175 26.2167 9.72358C26.6664 9.04016 26.6858 8.14907 26.2662 7.45384C23.895 3.52193 19.7439 1.13052 15.1622 1.05689C15.0903 1.05577 15.0181 1.0552 14.9464 1.0552V1.0552ZM8.24122 19.4316C6.38219 19.4316 4.64644 19.1356 3.06451 18.5471C2.14085 18.2035 1.47227 17.3812 1.31968 16.4013C1.19794 15.6198 1.14326 14.8192 1.15714 14.0222C1.22104 10.3575 2.71791 6.92695 5.37204 4.36271C8.02546 1.79932 11.5057 0.417868 15.1715 0.478848C17.5472 0.517065 19.8808 1.1707 21.9204 2.36893C23.9006 3.5326 25.5746 5.18776 26.7613 7.15513C27.295 8.04004 27.2708 9.17279 26.7001 10.0411C24.6681 13.1317 21.3187 15.7159 17.0142 17.5144C14.5205 18.5565 12.0692 19.181 9.72809 19.3704C9.22437 19.4112 8.72853 19.4316 8.24122 19.4316" fill="#6D184E"/>
<path d="M23.245 27.9554C23.0786 28.8538 22.2152 29.4469 21.3167 29.2803C20.4185 29.1137 19.8252 28.2504 19.9921 27.352C20.0898 26.8241 20.3014 26.944 20.6466 27.0639C20.8888 27.1481 21.1965 27.2321 21.577 27.0924C22.663 26.6936 23.4117 27.0572 23.245 27.9554" fill="#FCAF15"/>
<path d="M21.3138 29.2798H21.3136H21.3138ZM22.4205 28.1374C22.461 28.0366 22.492 27.9305 22.5126 27.8196C22.5896 27.4049 22.4696 27.106 22.2132 26.9416C22.2699 26.9362 22.3247 26.9336 22.3777 26.9336C22.9989 26.9336 23.3624 27.2986 23.2467 27.9454C23.2837 27.7388 23.2702 27.5619 23.2166 27.4151C23.0284 27.7044 22.7457 27.9707 22.4205 28.1374M23.2456 27.9522C23.2456 27.9519 23.2458 27.9514 23.2458 27.951C23.2458 27.9514 23.2456 27.9517 23.2456 27.9522ZM23.2463 27.949C23.2463 27.9479 23.2465 27.9469 23.2467 27.9457C23.2465 27.9469 23.2463 27.9479 23.2463 27.949Z" fill="#FED78A"/>
<path d="M21.3167 29.2805C21.3158 29.2802 21.3149 29.2801 21.3138 29.2799C21.3147 29.2801 21.3158 29.2802 21.3167 29.2805ZM23.1394 28.3056C23.1865 28.1955 23.2223 28.0783 23.245 27.9556C23.2453 27.9546 23.2455 27.9535 23.2457 27.9523C23.2455 27.9535 23.2453 27.9544 23.245 27.9556C23.2223 28.0783 23.1865 28.1955 23.1394 28.3056" fill="#D18126"/>
<path d="M19.9922 27.3521C19.9922 27.3517 19.9922 27.3513 19.9923 27.3509C19.9922 27.3513 19.9922 27.3517 19.9922 27.3521Z" fill="#6D184E"/>
<path d="M21.3138 29.2798C20.4171 29.1118 19.8254 28.2494 19.9919 27.352C19.9919 27.3515 19.9922 27.351 19.9922 27.3504C20.0432 27.0773 20.1247 26.9787 20.2398 26.9634C20.4061 27.549 20.8604 28.1759 21.4996 28.2945C21.5759 28.3086 21.6519 28.3153 21.7279 28.3153C21.9675 28.3153 22.2035 28.2484 22.4204 28.1374C22.1785 28.7378 21.603 29.1416 20.9586 29.1695C21.0703 29.2181 21.1886 29.2562 21.3138 29.2798M23.2457 27.951C23.2459 27.9504 23.2461 27.9497 23.2461 27.949C23.2461 27.9497 23.2459 27.9504 23.2457 27.951ZM23.2468 27.9457C23.2468 27.9457 23.2468 27.9456 23.2468 27.9454C23.2468 27.9456 23.2468 27.9457 23.2468 27.9457Z" fill="#D18126"/>
<path d="M21.6307 29.3083C22.2879 29.3041 22.8824 28.9069 23.1393 28.3055C22.8824 28.9071 22.2879 29.3042 21.6307 29.3083" fill="#D3B392"/>
<path d="M21.6203 29.3083C21.5203 29.3083 21.4185 29.2992 21.3167 29.2804C21.3156 29.2801 21.3147 29.2799 21.3139 29.2798H21.3136C21.1888 29.2562 21.0704 29.2182 20.9585 29.1695C21.6032 29.1417 22.1784 28.7378 22.4206 28.1374C22.7457 27.9707 23.0284 27.7044 23.2166 27.4151C23.2702 27.5619 23.2838 27.7388 23.2469 27.9455C23.2469 27.9456 23.2469 27.9457 23.2469 27.9457C23.2465 27.9469 23.2465 27.9479 23.2463 27.949C23.246 27.9497 23.246 27.9505 23.2458 27.951C23.2458 27.9515 23.2456 27.9519 23.2456 27.9522C23.2454 27.9533 23.2452 27.9545 23.2449 27.9555C23.2223 28.0782 23.1864 28.1953 23.1394 28.3055C22.8823 28.9069 22.2878 29.3041 21.6308 29.3083C21.6271 29.3083 21.6238 29.3083 21.6203 29.3083" fill="#D29D78"/>
<path d="M20.3145 27.2571C20.3041 27.2845 20.2899 27.3306 20.2762 27.405C20.2097 27.7635 20.2868 28.1264 20.4931 28.4271C20.6997 28.7276 21.011 28.9297 21.3694 28.9963C21.7281 29.0627 22.0909 28.9857 22.3916 28.7791C22.6922 28.5728 22.8942 28.2614 22.9608 27.903C22.9933 27.7272 22.998 27.4889 22.8353 27.3515C22.6249 27.174 22.181 27.1788 21.6765 27.364C21.1584 27.5544 20.7477 27.4075 20.4759 27.3104C20.4245 27.292 20.3592 27.2686 20.3145 27.2571V27.2571ZM21.6227 29.5979C21.5036 29.5979 21.3836 29.5869 21.2638 29.5646C20.7537 29.47 20.3107 29.1824 20.0167 28.7544C19.7227 28.3266 19.6129 27.8099 19.7076 27.2995C19.7446 27.1006 19.8137 26.857 20.0229 26.7366C20.2396 26.6117 20.4686 26.6938 20.6707 26.766C20.9091 26.8512 21.1558 26.9394 21.4772 26.8214C22.1974 26.5568 22.8282 26.589 23.2081 26.9097C23.5008 27.1567 23.6148 27.547 23.5291 28.0084C23.4346 28.5188 23.1468 28.9618 22.719 29.2557C22.3914 29.4807 22.0117 29.5979 21.6227 29.5979" fill="#6D184E"/>
<path d="M25.3963 16.5613C25.5131 16.615 25.6496 16.6013 25.7604 16.5364C26.2177 16.2677 27.6787 15.3796 27.9247 14.8559C28.1989 14.2718 24.5707 16.1821 25.3963 16.5613Z" fill="#E5525F"/>
</svg>
