<svg viewBox="0 0 342 432" fill="none" xmlns="http://www.w3.org/2000/svg">
<rect width="342" height="432" fill="#FFAB08"/>
<path d="M158.705 194.074C150.421 187.982 146.984 178.414 150.583 172.083C150.777 171.734 150.997 171.386 151.243 171.06C155.858 164.776 166.688 164.889 175.432 171.312C184.172 177.743 187.518 188.045 182.897 194.327C181.676 195.988 180.024 197.197 178.091 197.966C172.705 200.113 165.138 198.799 158.705 194.074M213.405 119.656C166.875 85.4518 109.229 84.8434 84.6439 118.292C82.2714 121.517 80.2953 124.942 78.7074 128.524C63.7596 162.118 82.3401 209.872 124.381 240.771C139.39 251.798 155.554 259.335 171.391 263.359C179.22 265.348 186.974 266.48 194.463 266.754C218.8 267.64 240.404 259.458 253.136 242.133C254.871 239.774 256.395 237.311 257.709 234.753C275.069 201.056 256.645 151.436 213.405 119.656" fill="#F5AF41"/>
<path d="M200.494 262.846C199.319 262.846 198.135 262.825 196.945 262.781C195.94 262.745 194.934 262.693 193.92 262.625C193.874 259.705 193.89 256.791 194.145 254.31C196.591 254.574 199.016 254.749 201.416 254.837C202.605 254.88 203.787 254.901 204.964 254.901C223.893 254.901 240.944 249.281 253.124 238.01C252.529 238.935 251.903 239.848 251.246 240.743C246.756 246.851 241.105 251.778 234.588 255.524C224.607 260.408 212.958 262.846 200.494 262.846M166.409 257.236C152.998 252.914 139.52 246.097 126.864 236.798C94.4475 212.973 75.9792 179.129 76.0746 149.479C76.5225 142.343 78.1282 135.517 80.9684 129.221C81.2027 129.279 81.4442 129.322 81.6914 129.347C77.9733 148.779 83.3847 171.153 96.4098 191.813C94.4643 198.148 95.383 203.703 99.2142 207.46C101.772 209.97 105.236 211.23 108.964 211.23C109.734 211.23 110.516 211.177 111.302 211.069C117.21 217.411 123.903 223.394 131.332 228.854C132.479 229.697 133.634 230.52 134.795 231.323C134.982 234.923 135.765 238.124 138.08 240.505C140.54 243.033 144.425 244.262 149.941 244.262C150.209 244.262 150.482 244.259 150.755 244.253C152.266 244.221 153.676 243.768 154.884 242.945C159.578 245.165 164.305 247.078 169.029 248.68C168.215 250.944 167.249 253.909 166.409 257.236" fill="#CC8145"/>
<path d="M189.382 193.863C188.316 193.737 187.241 193.565 186.158 193.348C189.372 186.043 185.596 175.873 176.821 169.422C171.994 165.877 166.546 164.108 161.62 164.108C157.828 164.108 154.344 165.156 151.693 167.246C150.896 165.667 150.222 164.072 149.674 162.476C152.915 159.544 157.371 158.069 162.237 158.069C167.882 158.069 174.085 160.055 179.596 164.055C190.611 172.052 194.83 185.168 189.382 193.863Z" fill="#CC8145"/>
<path d="M181.517 192.149C176.483 190.558 171.401 188.007 166.633 184.503C161.469 180.707 157.213 176.181 154.079 171.375C155.931 169.611 158.586 168.738 161.577 168.738C165.501 168.738 170.005 170.241 174.041 173.207C181.351 178.581 184.535 186.852 181.517 192.149" fill="#BA73C9"/>
<path d="M182.898 194.328H182.902H182.898ZM161.578 168.739C158.029 168.739 154.957 169.965 153.132 172.449C151.357 174.863 151.026 178.179 152.195 181.787C153.456 185.669 156.261 189.361 160.096 192.179C167.78 197.829 177.16 198.167 181.004 192.936C184.85 187.706 181.725 178.856 174.041 173.206C170.006 170.241 165.5 168.739 161.578 168.739M172.515 201.279C167.588 201.279 162.14 199.511 157.314 195.964C152.693 192.566 149.289 188.047 147.728 183.236C146.079 178.151 146.653 173.332 149.347 169.669C154.725 162.351 167.05 162.242 176.823 169.423C186.593 176.604 190.169 188.4 184.789 195.718C182.066 199.422 177.566 201.279 172.515 201.279M139.759 95.9475C116.676 95.9475 97.8045 104.355 86.5389 119.682C62.7621 152.031 80.3619 205.502 125.772 238.879C171.182 272.255 227.47 273.091 251.246 240.743C275.022 208.393 257.422 154.922 212.013 121.545C189.903 105.293 164.602 96.2049 140.771 95.9532C140.433 95.9494 140.095 95.9475 139.759 95.9475ZM198.029 269.172C197.674 269.172 197.321 269.17 196.964 269.166C172.157 268.904 145.886 259.492 122.991 242.663C100.094 225.834 83.2687 203.57 75.6141 179.974C67.869 156.102 70.4054 133.701 82.7542 116.9C95.1032 100.099 115.712 90.9745 140.821 91.2567C165.628 91.5198 191.898 100.932 214.793 117.76C237.691 134.587 254.514 156.852 262.17 180.451C269.916 204.322 267.38 226.722 255.031 243.523C242.856 260.087 222.642 269.171 198.029 269.172Z" fill="#6D184E"/>
<path d="M214.937 186.921C205.449 199.828 183.2 199.593 165.243 186.394C150.159 175.307 142.905 158.602 146.591 145.889C146.85 145.202 151.776 132.56 161.141 143.223C170.766 154.182 172.586 156.086 184.326 152.595C196.066 149.105 188.925 170.622 200.779 172.47C212.633 174.318 218.836 176.02 214.937 186.921M214.429 117.281C191.996 100.795 167.049 91.9254 144.284 90.7077L144.295 90.6983C113.308 86.6062 94.8947 97.5129 86.0166 108.422C78.0561 118.199 77.7612 127.98 82.9419 126.95C84.7692 126.586 86.3363 126.507 87.688 126.621C87.5508 127.267 87.4129 127.91 87.2927 128.58C81.7959 159.278 114.864 165.102 102.331 184.795C89.7973 204.487 105.762 214.284 118.526 205.808L118.615 205.749C124.301 202.036 132.056 204.288 134.963 210.426C136.401 213.464 137.541 217.119 137.411 220.938C137.016 232.598 134.851 242.249 150.705 241.905C155.381 241.805 157.448 236.202 156.236 231.653C153.497 221.362 166.92 218.914 172.132 225.787C173.374 227.424 174.275 229.148 174.62 230.786C175.162 235.713 174.417 241.38 172.28 246.726C167.061 259.787 159.905 288.103 180.994 290.399C191.728 291.566 191.949 279.671 191.685 267.776C191.432 256.3 190.724 244.825 198.573 245.079C214.553 245.596 216.234 253.544 231.105 242.649C245.975 231.754 253.801 224.463 260.131 227.779C266.462 231.096 266.531 206.011 266.531 206.011C266.274 175.798 247.374 141.497 214.429 117.281Z" fill="#FF33BB"/>
<path d="M124.01 152.832C123.206 152.832 122.424 152.581 121.758 152.105C120.915 151.501 120.358 150.605 120.188 149.582L118.609 140.04C118.259 137.927 119.693 135.924 121.805 135.574C122.019 135.54 122.234 135.522 122.446 135.522C123.252 135.522 124.032 135.771 124.699 136.249C125.543 136.853 126.1 137.748 126.269 138.771L127.849 148.314C128.018 149.337 127.78 150.365 127.176 151.208C126.571 152.052 125.676 152.61 124.653 152.778C124.439 152.814 124.223 152.832 124.01 152.832" fill="#D32B9A"/>
<path d="M165.97 131.415C164.964 131.415 164.016 131.035 163.288 130.337L156.3 123.65C154.753 122.169 154.699 119.707 156.18 118.16C156.898 117.412 157.863 116.986 158.899 116.964C158.933 116.962 158.966 116.962 158.999 116.962C160.002 116.962 160.944 117.346 161.669 118.04L168.657 124.728C170.203 126.208 170.258 128.671 168.777 130.217C168.059 130.966 167.094 131.392 166.056 131.414C166.027 131.415 165.999 131.415 165.97 131.415" fill="#D32B9A"/>
<path d="M212.849 165.601C211.4 165.316 209.823 165.057 208.131 164.793C203.981 164.146 202.158 161.085 201.038 157.53C201.194 156.267 201.966 155.103 203.193 154.505C203.738 154.242 204.316 154.116 204.885 154.116C206.325 154.116 207.712 154.919 208.383 156.298L212.614 164.997C212.71 165.194 212.788 165.397 212.849 165.601" fill="#D32B9A"/>
<path d="M143.191 203.522C143.072 203.522 142.952 203.517 142.833 203.507C142.772 203.501 142.712 203.493 142.652 203.486C142.541 203.236 142.43 202.991 142.315 202.749C141.592 201.221 140.568 199.934 139.351 198.92L140.191 189.656C140.373 187.64 142.071 186.125 144.059 186.125C144.174 186.125 144.291 186.13 144.407 186.14C145.44 186.234 146.374 186.724 147.039 187.52C147.703 188.317 148.017 189.325 147.923 190.358L147.05 199.99C146.956 201.023 146.465 201.958 145.669 202.622C144.965 203.208 144.096 203.522 143.191 203.522Z" fill="#D32B9A"/>
<path d="M116.346 184.554C115.054 184.554 113.79 183.911 113.053 182.739C111.914 180.927 112.461 178.525 114.275 177.386L122.464 172.238C123.104 171.835 123.818 171.644 124.524 171.644C125.816 171.644 127.081 172.287 127.818 173.459C128.957 175.271 128.409 177.673 126.596 178.812L118.407 183.96C117.767 184.362 117.052 184.554 116.346 184.554Z" fill="#D32B9A"/>
<path d="M189.41 236.919C188.119 236.919 186.854 236.277 186.117 235.104C184.979 233.292 185.526 230.891 187.338 229.751L195.527 224.603C196.168 224.201 196.881 224.009 197.587 224.009C198.88 224.009 200.144 224.652 200.88 225.825C202.02 227.637 201.473 230.039 199.661 231.178L191.47 236.325C190.831 236.728 190.116 236.919 189.41 236.919Z" fill="#D32B9A"/>
<path d="M217.356 214.212C216.829 214.212 216.306 214.104 215.809 213.887C214.857 213.474 214.124 212.714 213.744 211.75L210.199 202.75C209.819 201.786 209.838 200.729 210.251 199.779C210.666 198.828 211.425 198.095 212.39 197.714C212.851 197.533 213.332 197.443 213.813 197.443C214.338 197.443 214.864 197.55 215.361 197.767C216.31 198.181 217.044 198.939 217.424 199.904L220.969 208.906C221.349 209.869 221.332 210.925 220.917 211.874C220.503 212.827 219.745 213.559 218.779 213.939C218.318 214.121 217.836 214.212 217.356 214.212Z" fill="#D32B9A"/>
<path d="M198.729 139.273C198.367 139.273 198.003 139.221 197.645 139.118L188.352 136.435C186.295 135.84 185.107 133.684 185.7 131.627C186.192 129.929 187.748 128.822 189.434 128.822C189.789 128.822 190.149 128.871 190.507 128.974L199.801 131.659C201.857 132.254 203.047 134.41 202.454 136.466C202.166 137.463 201.507 138.287 200.598 138.788C200.016 139.11 199.376 139.273 198.729 139.273" fill="#D32B9A"/>
<path d="M233.703 186.624C233.347 186.624 232.985 186.575 232.628 186.471L223.335 183.787C222.338 183.498 221.514 182.839 221.011 181.932C220.877 181.685 220.769 181.43 220.69 181.168C221.257 180.563 221.791 179.921 222.29 179.243C222.658 178.215 222.936 177.267 223.128 176.395C223.536 176.251 223.971 176.174 224.415 176.174C224.769 176.174 225.132 176.222 225.49 176.326L234.781 179.011C236.839 179.606 238.028 181.761 237.434 183.819C236.943 185.517 235.388 186.624 233.703 186.624Z" fill="#D32B9A"/>
<path d="M242.075 227.98C242.024 227.98 241.972 227.979 241.919 227.977C240.884 227.936 239.926 227.494 239.221 226.733C238.517 225.972 238.151 224.982 238.192 223.946C238.233 222.909 238.675 221.951 239.434 221.247L246.536 214.679C247.262 214.01 248.192 213.648 249.175 213.648C249.225 213.648 249.275 213.648 249.324 213.651C250.361 213.69 251.319 214.132 252.024 214.894C253.477 216.465 253.381 218.927 251.809 220.38L244.707 226.948C243.984 227.616 243.055 227.98 242.075 227.98" fill="#D32B9A"/>
<path d="M223.758 162.635C222.925 162.635 222.118 162.368 221.439 161.861C220.608 161.237 220.072 160.329 219.924 159.304C219.621 157.184 221.097 155.214 223.217 154.91L232.791 153.538C232.979 153.511 233.165 153.498 233.349 153.498C234.184 153.498 234.991 153.766 235.67 154.275C236.499 154.897 237.039 155.805 237.185 156.831C237.332 157.858 237.071 158.88 236.449 159.709C235.827 160.539 234.919 161.078 233.894 161.224L224.318 162.596C224.132 162.623 223.944 162.635 223.758 162.635" fill="#D32B9A"/>
<path d="M160.818 215.394C160.796 215.394 160.774 215.394 160.751 215.394C159.714 215.376 158.747 214.956 158.025 214.21C156.537 212.672 156.578 210.209 158.118 208.721L165.07 201.996C165.823 201.269 166.797 200.908 167.769 200.908C168.785 200.908 169.801 201.302 170.559 202.089C171.281 202.833 171.669 203.816 171.651 204.852C171.635 205.889 171.215 206.858 170.469 207.578L163.516 214.302C162.786 215.007 161.829 215.394 160.818 215.394Z" fill="#D32B9A"/>
<path d="M133.902 125.848C132.676 125.848 131.47 125.27 130.716 124.192L125.167 116.27C123.939 114.517 124.367 112.091 126.121 110.863C126.796 110.389 127.573 110.162 128.341 110.162C129.567 110.162 130.773 110.738 131.527 111.816L137.075 119.738C138.305 121.493 137.875 123.919 136.122 125.147C135.446 125.619 134.67 125.848 133.902 125.848" fill="#D32B9A"/>
<path d="M118.451 103.122C118.318 104.454 117.704 105.675 116.885 106.734C110.24 115.323 118.512 134.812 107.607 135.758C96.6085 136.709 97.3692 111.944 104.641 103.897C113.824 93.7318 119.063 96.9956 118.451 103.122Z" fill="#FF5CC9"/>
<path d="M241.371 186.159C241.371 186.159 242.022 200.208 227.227 207.925C212.431 215.64 240.799 220.474 249.095 205.322C257.388 190.17 243.136 177.565 241.371 186.159Z" fill="#FF5CC9"/>
<path d="M264.054 210.587C261.662 180.122 242.058 146.601 209.297 122.517C206.342 120.347 203.351 118.306 200.319 116.382C199.171 115.655 198.02 114.949 196.865 114.257C194.416 116.191 190.975 117.239 187.24 117.239C184.64 117.239 181.897 116.731 179.247 115.664C172.029 112.752 167.921 106.663 169.091 101.266C168.374 101.021 167.66 100.78 166.945 100.547C156.218 97.0437 145.53 95.0155 135.257 94.4684L135.27 94.4611C130.46 93.8274 125.938 93.5345 121.693 93.5345C119.749 93.5345 117.863 93.5953 116.035 93.7132C120.691 92.7258 125.829 92.1713 131.46 92.1713C135.322 92.1713 139.419 92.4329 143.748 92.9929C143.881 93.026 144.018 93.0445 144.158 93.0518C167.346 94.2934 191.808 103.569 213.037 119.173C244.323 142.169 263.922 175.45 264.183 206.004C264.18 207.54 264.134 209.081 264.054 210.587" fill="#FF99DD"/>
<path d="M214.938 186.92H214.941H214.938ZM148.82 146.634C145.381 158.7 152.693 174.256 166.632 184.502C183.387 196.816 204.018 197.366 212.841 185.802C213.912 182.695 214.04 180.525 213.236 179.172C211.793 176.742 206.576 175.75 200.418 174.79C193.043 173.642 191.456 166.564 190.297 161.396C189.654 158.527 188.987 155.559 187.691 154.798C187.126 154.467 186.218 154.482 184.995 154.847C171.695 158.801 169.086 155.828 159.377 144.772C157.829 143.01 155.554 140.983 153.524 141.359C151.173 141.789 149.364 145.236 148.82 146.634M193.633 198.753C184.035 198.753 173.344 195.264 163.852 188.287C148.321 176.873 140.296 159.17 144.335 145.236C144.352 145.178 144.371 145.122 144.393 145.063C144.852 143.842 147.407 137.703 152.678 136.739C156.05 136.123 159.49 137.784 162.905 141.674C172.262 152.328 173.239 153.44 183.658 150.344C186.177 149.594 188.333 149.732 190.067 150.748C193.124 152.542 194.016 156.519 194.88 160.368C196.154 166.047 197.212 169.537 201.14 170.15C209.011 171.376 214.774 172.569 217.273 176.772C218.886 179.488 218.847 182.963 217.149 187.711C217.072 187.925 216.965 188.128 216.829 188.312C211.714 195.272 203.217 198.753 193.633 198.753M163.999 219.566C167.622 219.566 171.479 221.039 174.004 224.368C175.531 226.384 176.512 228.379 176.917 230.3C176.934 230.376 176.946 230.452 176.953 230.529C177.556 236.006 176.671 242.067 174.462 247.598C170.059 258.615 166.638 274.349 171.498 282.435C173.474 285.723 176.664 287.564 181.247 288.064C183.423 288.299 185.042 287.9 186.196 286.839C189.722 283.6 189.496 274.278 189.295 266.052C189.081 257.178 188.878 248.795 192.825 244.883C194.339 243.379 196.299 242.654 198.649 242.732C204.271 242.914 208.256 243.984 211.457 244.844C217.44 246.451 220.735 247.336 229.716 240.755C231.939 239.128 233.971 237.605 235.934 236.131C247.493 227.467 254.485 222.226 261.158 225.666C262.734 224.145 264.156 215.013 264.184 206.004C263.921 175.451 244.324 142.168 213.037 119.173C191.809 103.57 167.346 94.2932 144.158 93.0515C144.018 93.044 143.881 93.0252 143.748 92.9933C109.388 88.5392 89.8181 102.995 83.495 116.757C81.2359 121.675 81.7979 124.363 82.1575 124.685C82.1524 124.675 82.2696 124.688 82.4842 124.645C84.4037 124.264 86.221 124.142 87.8845 124.281C88.5559 124.337 89.1715 124.679 89.5737 125.22C89.9749 125.761 90.1249 126.449 89.9849 127.108L89.971 127.176C89.8438 127.773 89.7157 128.372 89.6045 128.996C87.0036 143.517 93.6652 152.104 99.5423 159.68C105.632 167.529 111.384 174.944 104.312 186.056C99.4469 193.698 98.7706 200.447 102.503 204.109C105.857 207.398 112.049 207.29 117.227 203.853L117.334 203.782C120.588 201.657 124.626 201.05 128.413 202.117C132.236 203.196 135.397 205.859 137.085 209.421C138.984 213.432 139.883 217.334 139.759 221.017C139.72 222.153 139.665 223.27 139.611 224.362C139.335 229.969 139.096 234.811 141.447 237.229C143.068 238.895 146.081 239.655 150.654 239.558C151.636 239.537 152.423 239.114 153.06 238.267C154.168 236.793 154.532 234.378 153.969 232.258C152.629 227.231 154.45 222.812 158.72 220.727C160.264 219.971 162.099 219.566 163.999 219.566M182.399 292.826C181.862 292.826 181.309 292.795 180.74 292.732C174.68 292.073 170.217 289.422 167.472 284.854C160.251 272.836 167.658 251.965 170.1 245.855C172.012 241.069 172.792 235.859 172.3 231.164C172.024 229.969 171.319 228.602 170.262 227.206C167.981 224.198 163.518 223.608 160.781 224.947C158.522 226.049 157.737 228.159 158.506 231.049C159.437 234.542 158.772 238.483 156.815 241.089C155.32 243.077 153.167 244.201 150.755 244.253C144.805 244.378 140.66 243.155 138.081 240.504C134.304 236.621 134.603 230.553 134.921 224.13C134.973 223.063 135.027 221.969 135.065 220.858C135.164 217.93 134.415 214.758 132.84 211.431C131.734 209.095 129.656 207.348 127.138 206.638C124.658 205.939 122.02 206.33 119.899 207.716L119.836 207.757C112.698 212.497 104.222 212.372 99.2145 207.46C93.7815 202.132 94.2055 193.187 100.35 183.534C105.647 175.211 101.742 170.178 95.8312 162.558C89.7813 154.761 82.2775 145.088 84.8367 129.022C84.371 129.079 83.8914 129.154 83.3998 129.253C81.2894 129.672 79.4234 128.975 78.2794 127.341C76.0281 124.125 77.1135 117.862 81.0452 111.386C83.6938 107.026 89.9789 98.875 102.326 93.2694C114.196 87.8817 128.42 86.2323 144.602 88.3701C144.617 88.372 144.633 88.3739 144.647 88.3757C168.667 89.7152 193.933 99.3034 215.819 115.39C248.275 139.244 268.605 173.959 268.881 205.991C268.879 206.218 268.86 211.003 268.308 216.19C267.229 226.304 265.135 228.782 263.431 229.81C262.086 230.621 260.529 230.638 259.043 229.859C254.976 227.727 248.868 232.306 238.752 239.889C236.778 241.369 234.736 242.901 232.491 244.543C221.695 252.456 216.89 251.166 210.239 249.38C207.117 248.541 203.576 247.59 198.496 247.426C197.135 247.383 196.494 247.857 196.131 248.217C193.623 250.705 193.819 258.799 193.992 265.939C194.225 275.613 194.467 285.617 189.374 290.297C187.546 291.978 185.204 292.826 182.399 292.826" fill="#6D184E"/>
<path d="M204.814 173.149C204.744 173.137 204.673 173.124 204.603 173.111C204.673 173.124 204.744 173.137 204.814 173.149Z" fill="#6D184E"/>
<path d="M203.856 172.977C203.747 172.956 203.634 172.937 203.523 172.92C203.634 172.937 203.747 172.956 203.856 172.977Z" fill="#6D184E"/>
<path d="M201.84 172.639C201.49 172.583 201.137 172.526 200.777 172.471C201.137 172.526 201.49 172.583 201.84 172.639Z" fill="#6D184E"/>
<path d="M159.023 141.136C158.917 141.047 158.812 140.96 158.707 140.878C158.812 140.96 158.917 141.047 159.023 141.136Z" fill="#6D184E"/>
<path d="M161.105 143.182C160.856 142.9 160.611 142.639 160.368 142.389C160.611 142.639 160.856 142.9 161.105 143.182Z" fill="#6D184E"/>
<path d="M216.066 182.111C216.066 182.087 216.069 182.063 216.071 182.039C216.069 182.063 216.066 182.087 216.066 182.111Z" fill="#6D184E"/>
<path d="M216.072 180.75C216.071 180.733 216.067 180.716 216.067 180.699C216.067 180.716 216.071 180.733 216.072 180.75Z" fill="#6D184E"/>
<path d="M211.765 175.106C211.728 175.089 211.693 175.073 211.657 175.056C211.693 175.073 211.728 175.089 211.765 175.106Z" fill="#6D184E"/>
<path d="M209.068 174.125C208.987 174.103 208.907 174.079 208.826 174.056C208.907 174.079 208.987 174.103 209.068 174.125Z" fill="#6D184E"/>
<path d="M210.502 174.59C210.442 174.569 210.381 174.547 210.319 174.525C210.381 174.547 210.442 174.569 210.502 174.59Z" fill="#6D184E"/>
<path d="M205.74 173.33C205.612 173.304 205.482 173.279 205.353 173.253C205.482 173.279 205.612 173.304 205.74 173.33Z" fill="#6D184E"/>
<path d="M158.257 140.538C158.145 140.459 158.036 140.383 157.927 140.31C158.036 140.383 158.145 140.459 158.257 140.538Z" fill="#6D184E"/>
<path d="M215.862 183.618C215.865 183.598 215.87 183.576 215.875 183.555C215.87 183.576 215.865 183.598 215.862 183.618Z" fill="#6D184E"/>
<path d="M160.207 142.227C159.964 141.981 159.722 141.748 159.484 141.534C159.722 141.748 159.964 141.981 160.207 142.227Z" fill="#6D184E"/>
<path d="M155.297 139.12C155.23 139.105 155.165 139.091 155.098 139.079C155.165 139.091 155.23 139.105 155.297 139.12Z" fill="#6D184E"/>
<path d="M153.745 138.976C153.788 138.975 153.83 138.973 153.874 138.972C153.83 138.973 153.788 138.975 153.745 138.976ZM154.185 138.973C154.124 138.972 154.065 138.97 154.006 138.97C154.007 138.97 154.009 138.97 154.011 138.97C154.037 138.97 154.063 138.972 154.09 138.972C154.123 138.972 154.152 138.972 154.185 138.973ZM154.001 138.97C154.003 138.97 154.004 138.97 154.006 138.97C154.004 138.97 154.003 138.97 154.001 138.97Z" fill="#6D184E"/>
<path d="M215.689 184.425C215.692 184.409 215.697 184.394 215.7 184.378C215.697 184.394 215.692 184.409 215.689 184.425Z" fill="#6D184E"/>
<path d="M157.425 139.995C157.319 139.931 157.216 139.872 157.112 139.817C157.216 139.872 157.319 139.931 157.425 139.995Z" fill="#6D184E"/>
<path d="M156.717 139.622C156.633 139.584 156.549 139.546 156.465 139.509C156.549 139.546 156.633 139.584 156.717 139.622Z" fill="#6D184E"/>
<path d="M155.857 139.274C155.812 139.26 155.767 139.246 155.722 139.232C155.767 139.246 155.812 139.26 155.857 139.274Z" fill="#6D184E"/>
<path d="M215.988 182.847C215.991 182.822 215.994 182.799 215.998 182.776C215.994 182.799 215.991 182.822 215.988 182.847Z" fill="#6D184E"/>
<path d="M149.887 239.566C145.743 239.566 142.976 238.801 141.446 237.23C139.095 234.811 139.335 229.969 139.611 224.362C139.665 223.271 139.72 222.154 139.759 221.017C139.882 217.334 138.984 213.433 137.084 209.422C135.397 205.86 132.236 203.196 128.412 202.118C127.186 201.773 125.935 201.603 124.69 201.603C122.094 201.603 119.533 202.344 117.334 203.781L117.226 203.853C114.567 205.618 111.641 206.505 108.969 206.505C106.438 206.505 104.134 205.709 102.502 204.108C98.7702 200.448 99.4464 193.698 104.311 186.056C111.383 174.945 105.631 167.53 99.5419 159.681C93.6647 152.104 87.0033 143.517 89.604 128.996C89.7152 128.373 89.8434 127.774 89.9705 127.175L89.9843 127.109C90.1245 126.45 89.9745 125.762 89.5732 125.222C89.1711 124.68 88.5554 124.337 87.884 124.281C87.4411 124.245 86.9883 124.226 86.5244 124.226C85.2465 124.226 83.8928 124.366 82.4836 124.646C82.2692 124.689 82.152 124.675 82.1569 124.686C81.7975 124.364 81.2354 121.675 83.4946 116.759C84.6197 114.309 86.1659 111.835 88.1402 109.451C85.9168 115.088 86.588 119.347 89.5753 119.345C89.8017 119.345 90.0409 119.323 90.2942 119.272C91.616 119.009 92.8017 118.896 93.8673 118.896C94.2755 118.896 94.6667 118.911 95.0401 118.943C94.9031 119.588 94.7661 120.233 94.646 120.904C89.1482 151.601 122.217 157.425 109.683 177.118C100.229 191.971 106.988 201.195 116.358 201.193C119.41 201.193 122.742 200.214 125.879 198.13C125.908 198.111 125.938 198.09 125.968 198.073C127.845 196.846 129.949 196.269 132.028 196.269C134.679 196.269 137.292 197.205 139.351 198.92L139.316 199.288C139.224 200.321 139.536 201.33 140.201 202.127C140.826 202.875 141.691 203.354 142.653 203.486C143.927 206.37 144.884 209.747 144.764 213.259C144.404 223.879 142.578 232.83 154.227 234.085C154.269 235.659 153.856 237.208 153.059 238.267C152.422 239.114 151.635 239.537 150.653 239.558C150.394 239.563 150.139 239.566 149.887 239.566" fill="#D32B9A"/>
<path d="M142.653 203.485C141.691 203.355 140.826 202.875 140.202 202.126C139.538 201.329 139.223 200.321 139.317 199.288L139.35 198.919C140.568 199.934 141.592 201.22 142.315 202.748C142.43 202.99 142.543 203.236 142.653 203.485Z" fill="#B42583"/>
<path d="M149.9 241.914C134.926 241.914 137.023 232.397 137.412 220.938C137.542 217.119 136.401 213.463 134.963 210.426C133.015 206.315 128.895 203.947 124.676 203.947C122.597 203.947 120.493 204.522 118.616 205.749C118.586 205.769 118.556 205.788 118.526 205.808C115.389 207.891 112.059 208.87 109.006 208.87C99.6359 208.87 92.8779 199.646 102.331 184.795C114.865 165.101 81.7952 159.278 87.2929 128.58C87.4131 127.911 87.5511 127.266 87.6882 126.62C87.3138 126.59 86.9235 126.572 86.5153 126.572C85.4487 126.572 84.263 126.686 82.9422 126.948C82.6889 126.999 82.4487 127.024 82.2223 127.024C76.8169 127.024 78.9937 113.067 92.2076 102.25C90.3695 104.747 89.0259 107.208 88.1411 109.451C86.1667 111.835 84.6205 114.308 83.4954 116.757C81.2362 121.674 81.7982 124.363 82.1577 124.685C82.1527 124.676 82.27 124.688 82.4843 124.646C83.8936 124.366 85.2472 124.224 86.5253 124.224C86.989 124.224 87.4419 124.243 87.8847 124.281C88.556 124.336 89.1718 124.68 89.574 125.221C89.9751 125.762 90.1252 126.449 89.9851 127.108L89.9712 127.176C89.8441 127.774 89.7161 128.372 89.6048 128.995C87.004 143.517 93.6655 152.105 99.5425 159.68C105.632 167.53 111.384 174.945 104.312 186.055C99.4472 193.698 98.7709 200.447 102.503 204.108C104.135 205.708 106.438 206.504 108.97 206.504C111.642 206.504 114.568 205.617 117.227 203.853L117.335 203.782C119.534 202.343 122.094 201.603 124.691 201.603C125.936 201.603 127.187 201.772 128.413 202.117C132.237 203.196 135.398 205.859 137.085 209.42C138.985 213.431 139.883 217.334 139.759 221.017C139.721 222.153 139.665 223.27 139.611 224.362C139.335 229.969 139.096 234.811 141.448 237.229C142.977 238.8 145.743 239.566 149.89 239.566C150.139 239.566 150.393 239.563 150.655 239.558C151.636 239.537 152.423 239.114 153.06 238.267C153.858 237.207 154.269 235.659 154.228 234.085C154.956 234.163 155.738 234.212 156.575 234.229C156.598 238.077 154.522 241.823 150.705 241.905C150.431 241.911 150.164 241.914 149.9 241.914" fill="#6D184E"/>
<path d="M218.295 183.362C218.689 180.727 218.348 178.582 217.273 176.773C214.773 172.57 209.01 171.377 201.141 170.149C197.211 169.537 196.153 166.046 194.879 160.368C194.016 156.52 193.124 152.542 190.068 150.747C189.068 150.163 187.928 149.868 186.66 149.868C185.728 149.868 184.725 150.026 183.656 150.345C180.45 151.297 178.139 151.851 176.202 151.851C171.844 151.851 169.381 149.048 162.905 141.674C160.158 138.544 157.394 136.857 154.661 136.639C155.734 134.585 157.984 131.288 161.385 131.288C163.367 131.288 165.74 132.408 168.495 135.546C175.287 143.281 178.191 146.505 183.442 146.505C185.63 146.505 188.226 145.944 191.678 144.917C192.558 144.656 193.33 144.536 194.013 144.536C199.26 144.536 199.202 151.699 201.038 157.531C200.95 158.249 201.062 158.998 201.402 159.695L205.633 168.394C206.087 169.326 206.876 170.026 207.857 170.366C208.272 170.508 208.7 170.58 209.126 170.58C209.707 170.58 210.284 170.447 210.822 170.186C211.755 169.733 212.455 168.943 212.793 167.963C213.061 167.189 213.078 166.372 212.849 165.601C220.594 167.125 224.679 169.339 223.129 176.395C221.985 176.797 221.044 177.728 220.684 178.979C220.472 179.705 220.479 180.459 220.69 181.167C219.947 181.962 219.147 182.693 218.295 183.362" fill="#D32B9A"/>
<path d="M209.126 170.579C208.698 170.579 208.271 170.509 207.856 170.366C206.875 170.027 206.086 169.327 205.633 168.395L201.4 159.696C201.061 158.999 200.95 158.249 201.038 157.531C202.158 161.084 203.979 164.146 208.13 164.793C209.824 165.057 211.399 165.317 212.848 165.602C213.077 166.372 213.059 167.19 212.792 167.964C212.454 168.944 211.755 169.734 210.821 170.187C210.283 170.448 209.706 170.579 209.126 170.579" fill="#B42583"/>
<path d="M220.691 181.167C220.479 180.46 220.472 179.704 220.683 178.978C221.044 177.727 221.984 176.797 223.128 176.394C222.936 177.268 222.658 178.213 222.289 179.242C221.792 179.92 221.258 180.562 220.691 181.167Z" fill="#B42583"/>
<path d="M215.47 185.254V185.252C215.552 184.969 215.624 184.693 215.688 184.427C215.692 184.409 215.696 184.395 215.699 184.379C215.761 184.12 215.815 183.866 215.861 183.618C215.866 183.598 215.87 183.576 215.875 183.556C215.919 183.312 215.957 183.077 215.988 182.846C215.991 182.823 215.994 182.799 215.998 182.776C216.012 182.663 216.024 182.55 216.037 182.438C216.048 182.328 216.057 182.22 216.065 182.112C216.057 182.22 216.048 182.328 216.037 182.438C216.048 182.328 216.057 182.22 216.065 182.112C216.067 182.087 216.068 182.063 216.07 182.04C216.084 181.825 216.092 181.616 216.093 181.412C216.093 181.409 216.093 181.407 216.093 181.404C216.093 181.385 216.093 181.368 216.093 181.349C216.092 181.245 216.092 181.145 216.087 181.046C216.084 180.946 216.079 180.847 216.073 180.75C216.07 180.732 216.068 180.715 216.067 180.699C216.052 180.508 216.032 180.323 216.005 180.142C216.004 180.136 216.002 180.13 216.002 180.123C215.999 180.114 215.998 180.103 215.996 180.092C215.98 179.996 215.965 179.902 215.946 179.81C215.927 179.715 215.905 179.624 215.883 179.533V179.53C215.696 178.79 215.392 178.138 214.974 177.559C214.439 176.817 213.719 176.195 212.828 175.663C212.765 175.626 212.7 175.588 212.634 175.552C212.534 175.494 212.429 175.437 212.324 175.383C212.303 175.372 212.283 175.361 212.263 175.35C212.14 175.285 212.016 175.226 211.887 175.164C211.847 175.146 211.806 175.125 211.764 175.106C211.729 175.091 211.693 175.073 211.655 175.056C211.494 174.982 211.326 174.912 211.156 174.841C211.106 174.822 211.059 174.802 211.009 174.781C210.925 174.75 210.842 174.717 210.758 174.684C210.673 174.653 210.588 174.621 210.502 174.59C210.442 174.568 210.381 174.546 210.32 174.526C210.152 174.466 209.979 174.408 209.805 174.351C209.734 174.329 209.664 174.306 209.592 174.284C209.419 174.231 209.245 174.177 209.067 174.125C208.986 174.104 208.906 174.078 208.824 174.056C208.738 174.033 208.648 174.008 208.559 173.984C208.471 173.959 208.38 173.936 208.291 173.912C208.201 173.889 208.11 173.865 208.019 173.841C207.84 173.797 207.66 173.752 207.478 173.708C207.376 173.685 207.274 173.661 207.17 173.637C206.991 173.597 206.809 173.556 206.626 173.515C206.607 173.51 206.586 173.507 206.566 173.502C206.472 173.482 206.378 173.462 206.282 173.443C206.103 173.405 205.922 173.368 205.739 173.33C205.612 173.305 205.482 173.28 205.353 173.255C205.174 173.218 204.995 173.184 204.813 173.151C204.744 173.138 204.673 173.124 204.603 173.112C204.532 173.099 204.46 173.087 204.389 173.072C204.214 173.041 204.036 173.008 203.856 172.977C203.746 172.956 203.634 172.938 203.523 172.919C203.468 172.911 203.413 172.9 203.36 172.892C203.193 172.864 203.032 172.836 202.862 172.806C202.655 172.773 202.443 172.737 202.231 172.702C202.101 172.682 201.973 172.66 201.841 172.639C201.491 172.583 201.138 172.526 200.778 172.471C189.809 170.761 195.104 152.213 186.658 152.213C185.976 152.213 185.203 152.334 184.326 152.596C180.87 153.622 178.277 154.183 176.088 154.183C170.84 154.183 167.932 150.959 161.14 143.224C161.128 143.21 161.117 143.196 161.104 143.183C160.855 142.901 160.61 142.64 160.367 142.391C160.313 142.336 160.26 142.279 160.208 142.226C159.963 141.98 159.722 141.749 159.483 141.534C159.438 141.493 159.391 141.452 159.343 141.411C159.237 141.317 159.128 141.225 159.023 141.137C158.917 141.047 158.811 140.963 158.706 140.879C158.669 140.85 158.629 140.817 158.59 140.787C158.479 140.701 158.366 140.619 158.256 140.539C158.145 140.46 158.035 140.385 157.926 140.311C157.864 140.271 157.802 140.231 157.741 140.192C157.636 140.125 157.529 140.059 157.424 139.996C157.319 139.933 157.214 139.873 157.112 139.819C157.063 139.793 157.018 139.773 156.971 139.748C156.884 139.704 156.801 139.662 156.716 139.622C156.633 139.583 156.549 139.546 156.465 139.509C156.401 139.481 156.334 139.451 156.269 139.426C156.13 139.37 155.993 139.321 155.856 139.276C155.811 139.261 155.765 139.247 155.721 139.233C155.684 139.222 155.646 139.211 155.61 139.202C155.572 139.191 155.536 139.181 155.5 139.172C155.433 139.153 155.365 139.137 155.296 139.12C155.23 139.106 155.164 139.092 155.097 139.079C155.003 139.061 154.907 139.043 154.813 139.029C154.684 139.012 154.555 138.996 154.43 138.988C154.348 138.982 154.267 138.976 154.185 138.974C154.152 138.973 154.121 138.971 154.089 138.971C154.063 138.971 154.036 138.971 154.009 138.971C154.008 138.971 154.006 138.971 154.005 138.971C154.003 138.971 154.002 138.971 154 138.971C153.958 138.971 153.915 138.971 153.874 138.973C153.83 138.974 153.788 138.976 153.744 138.977C153.808 138.723 153.87 138.466 153.943 138.213C153.995 138.075 154.234 137.455 154.661 136.639C157.393 136.857 160.156 138.544 162.904 141.675C169.381 149.049 171.843 151.852 176.2 151.852C178.138 151.852 180.449 151.298 183.657 150.346C184.724 150.027 185.727 149.868 186.659 149.868C187.927 149.868 189.068 150.164 190.066 150.749C193.122 152.543 194.014 156.521 194.879 160.369C196.152 166.047 197.21 169.538 201.139 170.15C209.009 171.378 214.773 172.57 217.272 176.773C218.347 178.582 218.687 180.728 218.295 183.363C217.405 184.061 216.462 184.692 215.47 185.254M215.688 184.427C215.624 184.693 215.552 184.969 215.47 185.252C215.552 184.969 215.624 184.693 215.688 184.427ZM215.861 183.618C215.815 183.866 215.761 184.12 215.699 184.379C215.761 184.12 215.815 183.866 215.861 183.618ZM216.093 181.412C216.092 181.616 216.084 181.825 216.07 182.04C216.084 181.825 216.092 181.616 216.093 181.412Z" fill="#6D184E"/>
<path d="M216.07 182.04C216.084 181.825 216.091 181.615 216.093 181.413C216.091 181.615 216.084 181.825 216.07 182.04Z" fill="#6D184E"/>
<path d="M216.067 180.699C216.052 180.509 216.033 180.323 216.006 180.142C216.033 180.323 216.052 180.509 216.067 180.699ZM216.006 180.142C216.004 180.136 216.002 180.13 216.002 180.124C216.002 180.13 216.004 180.136 216.006 180.142Z" fill="#6D184E"/>
<path d="M215.998 182.775C216.011 182.662 216.025 182.55 216.036 182.438C216.025 182.55 216.011 182.662 215.998 182.775ZM216.036 182.438C216.047 182.329 216.058 182.219 216.066 182.111C216.058 182.219 216.047 182.329 216.036 182.438Z" fill="#6D184E"/>
<path d="M215.996 180.091C215.981 179.997 215.964 179.903 215.945 179.809C215.964 179.903 215.981 179.997 215.996 180.091ZM215.945 179.809C215.927 179.716 215.906 179.625 215.883 179.534C215.906 179.625 215.927 179.716 215.945 179.809Z" fill="#6D184E"/>
<path d="M211.656 175.056C211.494 174.983 211.325 174.911 211.155 174.842C211.325 174.911 211.494 174.983 211.656 175.056Z" fill="#6D184E"/>
<path d="M212.828 175.663C212.764 175.625 212.701 175.588 212.636 175.551C212.701 175.588 212.764 175.625 212.828 175.663ZM212.636 175.551C212.534 175.493 212.43 175.437 212.325 175.382C212.43 175.437 212.534 175.493 212.636 175.551Z" fill="#6D184E"/>
<path d="M212.263 175.349C212.142 175.286 212.017 175.224 211.887 175.165C212.017 175.224 212.142 175.285 212.263 175.349ZM211.887 175.165C211.848 175.145 211.807 175.125 211.764 175.107C211.807 175.125 211.848 175.145 211.887 175.165Z" fill="#6D184E"/>
<path d="M215.471 185.252C215.552 184.968 215.623 184.694 215.688 184.425C215.623 184.694 215.552 184.968 215.471 185.252Z" fill="#6D184E"/>
<path d="M215.875 183.555C215.92 183.313 215.957 183.078 215.988 182.848C215.957 183.076 215.92 183.313 215.875 183.555Z" fill="#6D184E"/>
<path d="M215.698 184.381C215.761 184.12 215.815 183.867 215.861 183.618C215.815 183.867 215.761 184.12 215.698 184.381Z" fill="#6D184E"/>
<path d="M156.467 139.509C156.4 139.481 156.334 139.451 156.27 139.425C156.334 139.451 156.4 139.481 156.467 139.509Z" fill="#6D184E"/>
<path d="M155.098 139.078C155.002 139.059 154.907 139.042 154.814 139.028C154.907 139.042 155.002 139.059 155.098 139.078Z" fill="#6D184E"/>
<path d="M155.722 139.233C155.684 139.222 155.647 139.211 155.61 139.2C155.647 139.211 155.684 139.222 155.722 139.233ZM155.61 139.2C155.574 139.191 155.537 139.18 155.5 139.171C155.537 139.18 155.574 139.191 155.61 139.2Z" fill="#6D184E"/>
<path d="M157.925 140.311C157.865 140.271 157.803 140.231 157.743 140.192C157.803 140.231 157.865 140.271 157.925 140.311Z" fill="#6D184E"/>
<path d="M157.112 139.817C157.064 139.792 157.018 139.772 156.971 139.747C157.018 139.772 157.064 139.792 157.112 139.817Z" fill="#6D184E"/>
<path d="M211.009 174.783C210.927 174.749 210.842 174.716 210.757 174.684C210.842 174.716 210.927 174.749 211.009 174.783ZM210.757 174.684C210.673 174.653 210.588 174.621 210.501 174.59C210.588 174.621 210.673 174.653 210.757 174.684Z" fill="#6D184E"/>
<path d="M158.707 140.879C158.669 140.85 158.63 140.816 158.591 140.786C158.63 140.816 158.669 140.85 158.707 140.879Z" fill="#6D184E"/>
<path d="M215.883 179.531C215.697 178.79 215.392 178.138 214.975 177.56C215.392 178.138 215.697 178.79 215.883 179.531ZM214.975 177.56C214.439 176.816 213.72 176.196 212.829 175.663C213.72 176.196 214.439 176.816 214.975 177.56Z" fill="#6D184E"/>
<path d="M160.367 142.39C160.313 142.334 160.261 142.279 160.208 142.225C160.261 142.279 160.313 142.334 160.367 142.39Z" fill="#6D184E"/>
<path d="M154.431 138.987C154.349 138.981 154.266 138.975 154.186 138.973C154.266 138.975 154.349 138.981 154.431 138.987Z" fill="#6D184E"/>
<path d="M216.093 181.349C216.091 181.246 216.091 181.145 216.087 181.045C216.091 181.145 216.091 181.246 216.093 181.349ZM216.087 181.045C216.084 180.946 216.077 180.847 216.071 180.75C216.079 180.847 216.084 180.946 216.087 181.045Z" fill="#6D184E"/>
<path d="M207.171 173.638C206.99 173.596 206.81 173.556 206.625 173.514C206.81 173.556 206.99 173.596 207.171 173.638Z" fill="#6D184E"/>
<path d="M208.019 173.842C207.84 173.797 207.66 173.752 207.478 173.708C207.66 173.752 207.84 173.797 208.019 173.842Z" fill="#6D184E"/>
<path d="M159.484 141.533C159.438 141.491 159.391 141.451 159.344 141.411C159.391 141.451 159.438 141.491 159.484 141.533Z" fill="#6D184E"/>
<path d="M209.592 174.282C209.421 174.23 209.246 174.177 209.068 174.124C209.246 174.177 209.421 174.23 209.592 174.282Z" fill="#6D184E"/>
<path d="M210.321 174.524C210.153 174.464 209.981 174.407 209.806 174.351C209.981 174.407 210.153 174.464 210.321 174.524Z" fill="#6D184E"/>
<path d="M208.825 174.057C208.738 174.033 208.649 174.007 208.559 173.983C208.649 174.007 208.738 174.033 208.825 174.057ZM208.559 173.983C208.471 173.959 208.381 173.935 208.291 173.913C208.381 173.935 208.471 173.959 208.559 173.983Z" fill="#6D184E"/>
<path d="M206.284 173.441C206.104 173.404 205.924 173.366 205.74 173.329C205.924 173.366 206.104 173.404 206.284 173.441Z" fill="#6D184E"/>
<path d="M203.36 172.891C203.194 172.863 203.032 172.835 202.863 172.806C203.032 172.835 203.194 172.863 203.36 172.891Z" fill="#6D184E"/>
<path d="M202.232 172.703C202.101 172.681 201.972 172.66 201.841 172.639C201.972 172.66 202.101 172.681 202.232 172.703Z" fill="#6D184E"/>
<path d="M204.39 173.073C204.213 173.042 204.036 173.008 203.855 172.977C204.036 173.008 204.213 173.042 204.39 173.073Z" fill="#6D184E"/>
<path d="M205.353 173.254C205.174 173.22 204.995 173.184 204.813 173.15C204.995 173.184 205.174 173.22 205.353 173.254Z" fill="#6D184E"/>
<path d="M182.396 288.13C182.031 288.13 181.648 288.108 181.246 288.064C179.968 287.925 178.8 287.682 177.734 287.331C181.624 287.021 185.967 284.701 185.785 275.813C185.47 260.521 176.473 237.344 203.682 237.344C204.804 237.344 205.989 237.383 207.238 237.464C207.309 237.468 207.524 237.48 207.561 237.483L207.559 237.485C217.304 238.1 221.311 240.709 225.79 240.709C227.649 240.708 229.589 240.26 232.054 239.03C231.297 239.593 230.519 240.168 229.716 240.756C224.26 244.752 220.904 245.996 217.768 245.996C215.74 245.996 213.805 245.475 211.456 244.845C208.254 243.984 204.269 242.914 198.648 242.732C198.534 242.729 198.421 242.727 198.307 242.727C196.108 242.727 194.265 243.453 192.824 244.883C188.877 248.796 189.081 257.179 189.295 266.053C189.495 274.278 189.721 283.6 186.196 286.84C185.253 287.705 184.004 288.13 182.396 288.13M249.26 226.935C255.069 222.669 259.451 219.84 263.133 219.37C262.59 222.599 261.89 224.958 261.156 225.666C259.742 224.938 258.317 224.599 256.835 224.599C254.499 224.599 252.025 225.443 249.26 226.935Z" fill="#D32B9A"/>
<path d="M182.026 290.232C176.349 290.232 171.818 286.545 171.818 286.545C171.818 286.545 174.062 287.37 176.754 287.37C177.075 287.37 177.404 287.358 177.734 287.331C178.8 287.682 179.97 287.925 181.247 288.064C181.649 288.108 182.033 288.129 182.397 288.129C184.005 288.129 185.255 287.705 186.196 286.84C189.721 283.6 189.495 274.278 189.296 266.052C189.081 257.178 188.878 248.796 192.825 244.883C194.266 243.453 196.109 242.727 198.307 242.727C198.422 242.727 198.535 242.729 198.649 242.732C204.27 242.914 208.256 243.984 211.457 244.844C213.807 245.475 215.742 245.995 217.768 245.995C220.905 245.995 224.262 244.752 229.717 240.756C230.519 240.168 231.297 239.593 232.055 239.03C233.854 238.134 235.929 236.823 238.456 234.971C242.554 231.97 246.116 229.242 249.261 226.935C252.026 225.443 254.499 224.598 256.836 224.598C258.318 224.598 259.743 224.938 261.157 225.666C261.891 224.958 262.592 222.598 263.134 219.37C263.494 219.323 263.847 219.3 264.195 219.3C264.644 219.3 265.082 219.339 265.513 219.419C264.768 224.042 263.475 228.082 261.237 228.081C260.891 228.081 260.523 227.985 260.132 227.779C259.083 227.231 257.997 226.973 256.843 226.973C251.02 226.973 243.516 233.556 231.105 242.65C225.132 247.025 221.286 248.363 217.785 248.363C212.711 248.363 208.363 245.551 199.322 245.114C199.322 245.114 198.878 244.879 198.22 244.879C196.73 244.879 194.143 246.09 193.113 253.991C191.629 265.381 194.704 285.859 186.965 289.215C185.277 289.946 183.608 290.232 182.026 290.232" fill="#6D184E"/>
<path d="M122.968 134.123C121.421 134.379 120.375 135.84 120.631 137.386L122.211 146.93C122.467 148.476 123.928 149.522 125.474 149.266C127.023 149.011 128.068 147.548 127.811 146.002L126.233 136.46C125.977 134.912 124.515 133.866 122.968 134.123" fill="#0DF4FF"/>
<path d="M123.432 135.128C123.336 135.128 123.238 135.136 123.138 135.152C122.666 135.23 122.252 135.488 121.973 135.878C121.694 136.267 121.582 136.743 121.661 137.215L123.241 146.758C123.402 147.735 124.327 148.395 125.305 148.237C125.778 148.159 126.193 147.901 126.471 147.51C126.75 147.12 126.86 146.645 126.782 146.172L125.203 136.629C125.058 135.753 124.295 135.128 123.432 135.128V135.128ZM125.009 150.348C123.145 150.348 121.496 148.997 121.181 147.099L119.601 137.556C119.432 136.533 119.672 135.506 120.275 134.663C120.879 133.82 121.775 133.262 122.798 133.092C124.912 132.743 126.913 134.177 127.263 136.288L128.842 145.831C129.011 146.856 128.772 147.882 128.168 148.726C127.564 149.569 126.669 150.125 125.646 150.295C125.433 150.331 125.219 150.348 125.009 150.348" fill="#6D184E"/>
<path d="M157.928 116.399C156.843 117.531 156.882 119.329 158.014 120.412L165.002 127.101C166.135 128.184 167.931 128.145 169.016 127.013C170.099 125.88 170.06 124.082 168.928 122.999L161.94 116.312C160.809 115.227 159.011 115.266 157.928 116.399" fill="#0DF4FF"/>
<path d="M158.681 117.121C157.997 117.835 158.021 118.973 158.738 119.658L165.724 126.347C166.439 127.031 167.578 127.005 168.262 126.29C168.594 125.944 168.772 125.491 168.76 125.01C168.749 124.532 168.552 124.085 168.207 123.753L161.219 117.065C160.873 116.734 160.407 116.548 159.938 116.567C159.459 116.577 159.012 116.773 158.681 117.121V117.121ZM166.964 128.93C165.999 128.93 165.032 128.574 164.282 127.854L157.293 121.166C155.746 119.686 155.694 117.223 157.172 115.677C157.89 114.928 158.855 114.503 159.892 114.479C160.922 114.471 161.913 114.839 162.663 115.557L169.65 122.245C170.4 122.962 170.825 123.929 170.847 124.965C170.869 126.002 170.487 126.986 169.769 127.735C169.009 128.53 167.987 128.93 166.964 128.93" fill="#6D184E"/>
<path d="M204.642 152.963C203.233 153.649 202.646 155.347 203.332 156.757L207.564 165.455C208.249 166.865 209.947 167.451 211.358 166.767C212.769 166.08 213.354 164.381 212.669 162.971L208.437 154.273C207.751 152.864 206.053 152.277 204.642 152.963Z" fill="#0DF4FF"/>
<path d="M204.642 152.962H204.647H204.642ZM205.883 153.719C205.615 153.719 205.347 153.781 205.099 153.9V153.902C204.667 154.111 204.345 154.476 204.186 154.928C204.031 155.382 204.06 155.869 204.269 156.299L208.502 164.998C208.935 165.889 210.012 166.26 210.901 165.827C211.792 165.394 212.163 164.318 211.73 163.427L207.498 154.73C207.289 154.298 206.923 153.976 206.47 153.819C206.278 153.751 206.08 153.719 205.883 153.719ZM210.122 168.094C208.682 168.094 207.296 167.291 206.625 165.912L202.393 157.213C201.939 156.281 201.877 155.227 202.214 154.247C202.554 153.268 203.254 152.478 204.186 152.024C205.119 151.571 206.171 151.506 207.152 151.845C208.132 152.183 208.921 152.884 209.374 153.817L213.607 162.515C214.544 164.439 213.739 166.767 211.815 167.704C211.269 167.97 210.692 168.094 210.122 168.094Z" fill="#6D184E"/>
<path d="M145.305 184.696C143.744 184.555 142.364 185.705 142.223 187.267L141.349 196.9C141.208 198.461 142.358 199.843 143.919 199.984C145.481 200.126 146.863 198.975 147.003 197.413L147.876 187.78C148.019 186.219 146.868 184.838 145.305 184.696" fill="#0DF4FF"/>
<path d="M145.046 185.728C144.627 185.728 144.226 185.873 143.9 186.144C143.532 186.452 143.305 186.884 143.262 187.36L142.389 196.995C142.345 197.472 142.49 197.939 142.798 198.306C143.104 198.674 143.536 198.901 144.014 198.944C144.998 199.04 145.875 198.304 145.964 197.318L146.837 187.686C146.881 187.208 146.736 186.743 146.428 186.373C146.121 186.005 145.689 185.778 145.212 185.736C145.157 185.73 145.102 185.728 145.046 185.728V185.728ZM144.178 201.04C144.063 201.04 143.944 201.035 143.825 201.023C142.793 200.93 141.858 200.44 141.195 199.644C140.53 198.846 140.217 197.839 140.309 196.807L141.184 187.173C141.376 185.041 143.27 183.467 145.4 183.657C146.434 183.752 147.368 184.24 148.032 185.037C148.696 185.834 149.01 186.841 148.917 187.875L148.043 197.507C147.86 199.521 146.163 201.04 144.178 201.04" fill="#6D184E"/>
<path d="M127.927 171.531C127.091 170.205 125.34 169.805 124.012 170.64L115.823 175.787C114.495 176.622 114.096 178.373 114.931 179.701C115.764 181.028 117.518 181.428 118.844 180.594L127.034 175.447C128.361 174.611 128.761 172.859 127.927 171.531Z" fill="#FFD00D"/>
<path d="M125.52 171.249C125.193 171.249 124.864 171.337 124.567 171.522L116.378 176.67C115.973 176.924 115.69 177.322 115.584 177.791C115.477 178.259 115.559 178.74 115.815 179.146C116.341 179.982 117.452 180.236 118.289 179.71L126.479 174.562C127.316 174.035 127.569 172.924 127.043 172.087C126.702 171.546 126.117 171.249 125.52 171.249V171.249ZM117.34 182.071C116.048 182.071 114.784 181.428 114.046 180.256C113.494 179.378 113.318 178.339 113.548 177.327C113.78 176.315 114.389 175.454 115.268 174.903L123.458 169.756C125.27 168.617 127.67 169.165 128.81 170.976C129.948 172.788 129.402 175.19 127.589 176.328L119.4 181.478C118.76 181.88 118.046 182.071 117.34 182.071Z" fill="#6D184E"/>
<path d="M200.99 223.897C200.156 222.57 198.404 222.171 197.076 223.005L188.886 228.152C187.56 228.987 187.159 230.738 187.994 232.066C188.828 233.394 190.58 233.793 191.908 232.96L200.097 227.811C201.425 226.977 201.824 225.225 200.99 223.897" fill="#0DF4FF"/>
<path d="M198.582 223.612C198.248 223.612 197.921 223.707 197.631 223.889L189.441 229.036C189.036 229.291 188.754 229.689 188.646 230.157C188.54 230.625 188.621 231.105 188.877 231.51C189.132 231.916 189.531 232.2 189.998 232.306C190.464 232.413 190.944 232.331 191.352 232.076L199.541 226.929C200.379 226.402 200.633 225.291 200.107 224.453C199.85 224.047 199.453 223.765 198.985 223.659C198.851 223.628 198.717 223.612 198.582 223.612V223.612ZM190.404 234.439C190.114 234.439 189.824 234.408 189.534 234.341C188.523 234.111 187.661 233.5 187.11 232.622C186.558 231.745 186.381 230.705 186.611 229.692C186.842 228.681 187.453 227.82 188.331 227.269L196.52 222.122C197.398 221.569 198.438 221.393 199.449 221.624C200.461 221.854 201.321 222.465 201.874 223.343C203.012 225.155 202.464 227.556 200.652 228.696L192.462 233.843C191.837 234.237 191.126 234.439 190.404 234.439Z" fill="#6D184E"/>
<path d="M213.765 196.203C212.306 196.777 211.589 198.425 212.164 199.884L215.708 208.885C216.283 210.344 217.931 211.059 219.39 210.486C220.849 209.911 221.566 208.263 220.991 206.804L217.447 197.804C216.872 196.346 215.224 195.629 213.765 196.203Z" fill="#FFD00D"/>
<path d="M214.148 197.174C213.703 197.35 213.351 197.689 213.159 198.129C212.968 198.568 212.96 199.055 213.136 199.502L216.68 208.502C217.043 209.423 218.088 209.876 219.008 209.514C219.454 209.338 219.806 208.999 219.996 208.56C220.188 208.12 220.197 207.632 220.021 207.186L216.476 198.186C216.3 197.739 215.961 197.388 215.522 197.198C215.082 197.006 214.594 196.997 214.148 197.174ZM218.355 211.726C216.807 211.726 215.34 210.793 214.738 209.267L211.194 200.267C210.409 198.275 211.391 196.016 213.383 195.231C214.347 194.851 215.403 194.87 216.354 195.283C217.305 195.698 218.039 196.457 218.419 197.421L221.963 206.421C222.343 207.385 222.324 208.442 221.911 209.392C221.497 210.344 220.739 211.077 219.774 211.457C219.309 211.639 218.827 211.726 218.355 211.726" fill="#6D184E"/>
<path d="M187.696 129.433C187.261 130.941 188.129 132.514 189.635 132.948L198.93 135.633C200.434 136.069 202.009 135.202 202.443 133.694C202.878 132.188 202.01 130.614 200.504 130.179L191.211 127.494C189.705 127.06 188.131 127.927 187.696 129.433Z" fill="#FFD00D"/>
<path d="M188.698 129.725C188.423 130.675 188.973 131.673 189.925 131.947L199.217 134.631C200.167 134.907 201.165 134.356 201.441 133.406C201.572 132.945 201.52 132.459 201.288 132.041C201.055 131.62 200.674 131.316 200.215 131.182L190.92 128.499C189.97 128.224 188.973 128.774 188.698 129.725ZM199.714 136.789C199.358 136.789 198.997 136.74 198.639 136.637L189.346 133.952C187.289 133.359 186.098 131.202 186.692 129.146C187.287 127.089 189.444 125.9 191.499 126.492L200.794 129.177C201.79 129.465 202.614 130.123 203.116 131.032C203.616 131.939 203.734 132.987 203.446 133.985C202.955 135.684 201.399 136.789 199.714 136.789" fill="#6D184E"/>
<path d="M222.678 176.785C222.243 178.293 223.111 179.866 224.617 180.301L233.909 182.985C235.415 183.42 236.99 182.552 237.425 181.046C237.86 179.54 236.992 177.967 235.486 177.53L226.194 174.846C224.686 174.411 223.113 175.279 222.678 176.785Z" fill="#0DF4FF"/>
<path d="M223.682 177.075C223.407 178.025 223.956 179.024 224.907 179.298L234.2 181.982C235.151 182.259 236.148 181.706 236.422 180.755C236.697 179.806 236.148 178.808 235.197 178.533L225.904 175.849C224.954 175.574 223.956 176.124 223.682 177.075V177.075ZM234.696 184.141C234.34 184.141 233.979 184.092 233.62 183.989L224.327 181.303C222.27 180.71 221.082 178.552 221.675 176.496C222.27 174.439 224.427 173.253 226.482 173.843L235.775 176.527C237.832 177.122 239.022 179.28 238.429 181.335C237.938 183.033 236.382 184.141 234.696 184.141" fill="#6D184E"/>
<path d="M240.98 223.542C242.044 224.693 243.839 224.763 244.992 223.699L252.093 217.132C253.245 216.067 253.314 214.272 252.25 213.119C251.185 211.968 249.389 211.899 248.238 212.963L241.136 219.531C239.987 220.595 239.916 222.391 240.98 223.542Z" fill="#FFD52B"/>
<path d="M250.164 213.252C249.712 213.252 249.283 213.419 248.948 213.729L241.846 220.296C241.12 220.968 241.075 222.106 241.748 222.833C242.42 223.56 243.558 223.605 244.284 222.933L251.386 216.366C252.112 215.693 252.157 214.555 251.485 213.829C251.159 213.476 250.716 213.271 250.237 213.254C250.212 213.252 250.189 213.252 250.164 213.252ZM243.066 225.495C242.021 225.495 240.979 225.077 240.215 224.25C238.762 222.68 238.858 220.218 240.429 218.764L247.53 212.196C248.292 211.492 249.281 211.126 250.317 211.168C251.355 211.209 252.313 211.649 253.017 212.411C254.47 213.984 254.374 216.444 252.803 217.898L245.702 224.465C244.955 225.154 244.01 225.495 243.066 225.495Z" fill="#6D184E"/>
<path d="M221.95 156.673C222.173 158.224 223.611 159.304 225.163 159.081L234.738 157.71C236.288 157.487 237.368 156.047 237.145 154.497C236.922 152.944 235.484 151.866 233.932 152.089L224.357 153.46C222.805 153.683 221.727 155.121 221.95 156.673Z" fill="#FFD52B"/>
<path d="M234.339 153.103C234.253 153.103 234.167 153.11 234.08 153.123L224.505 154.495C223.524 154.634 222.843 155.546 222.983 156.526C223.052 157 223.299 157.419 223.683 157.707C224.066 157.995 224.539 158.116 225.014 158.047L234.59 156.676C235.569 156.536 236.252 155.624 236.112 154.645C236.043 154.17 235.796 153.751 235.411 153.462C235.098 153.228 234.724 153.103 234.339 153.103V153.103ZM224.751 160.154C223.918 160.154 223.109 159.886 222.431 159.378C221.601 158.755 221.063 157.848 220.916 156.82C220.613 154.703 222.089 152.731 224.209 152.427L233.784 151.055C234.81 150.911 235.833 151.17 236.663 151.792C237.492 152.415 238.031 153.322 238.177 154.348C238.482 156.467 237.004 158.439 234.886 158.742L225.31 160.113C225.123 160.14 224.936 160.154 224.751 160.154" fill="#6D184E"/>
<path d="M159.769 211.002C160.859 212.129 162.657 212.159 163.784 211.07L170.736 204.344C171.863 203.254 171.894 201.458 170.803 200.33C169.714 199.204 167.916 199.173 166.79 200.264L159.836 206.988C158.711 208.078 158.679 209.875 159.769 211.002Z" fill="#FFD52B"/>
<path d="M160.519 210.278C161.207 210.989 162.346 211.007 163.057 210.319L170.01 203.595C170.721 202.907 170.741 201.768 170.054 201.057C169.719 200.712 169.272 200.518 168.792 200.509C168.308 200.488 167.859 200.68 167.515 201.014L160.562 207.738C159.849 208.428 159.83 209.565 160.519 210.278V210.278ZM161.811 212.912C161.789 212.912 161.767 212.911 161.744 212.911C160.708 212.894 159.739 212.474 159.018 211.728C157.53 210.189 157.571 207.726 159.111 206.238L166.063 199.513C166.809 198.793 167.784 198.388 168.828 198.423C169.864 198.44 170.833 198.86 171.554 199.606C173.042 201.146 172.999 203.607 171.462 205.095L164.508 211.819C163.779 212.525 162.824 212.912 161.811 212.912" fill="#6D184E"/>
<path d="M136.516 121.809C137.801 120.91 138.113 119.139 137.213 117.856L131.666 109.932C130.766 108.648 128.997 108.336 127.712 109.235C126.428 110.135 126.116 111.904 127.016 113.188L132.563 121.112C133.463 122.396 135.232 122.708 136.516 121.809Z" fill="#FFD52B"/>
<path d="M129.337 109.765C128.972 109.765 128.617 109.875 128.312 110.09C127.919 110.364 127.656 110.777 127.573 111.249C127.49 111.72 127.596 112.198 127.87 112.589L133.418 120.513C133.693 120.905 134.105 121.167 134.577 121.251C135.05 121.335 135.526 121.228 135.918 120.954H135.919C136.311 120.679 136.573 120.267 136.657 119.795C136.74 119.323 136.634 118.846 136.36 118.455L130.811 110.53C130.536 110.137 130.124 109.875 129.653 109.793C129.547 109.773 129.442 109.765 129.337 109.765V109.765ZM134.897 123.366C134.671 123.366 134.442 123.348 134.215 123.306C133.194 123.126 132.304 122.56 131.708 121.711L126.161 113.786C125.566 112.937 125.338 111.907 125.517 110.885C125.697 109.864 126.264 108.973 127.114 108.381C127.963 107.785 128.994 107.556 130.015 107.736C131.036 107.917 131.926 108.484 132.521 109.333L138.069 117.257C138.664 118.107 138.892 119.136 138.712 120.159C138.533 121.179 137.966 122.069 137.115 122.663C136.455 123.125 135.686 123.366 134.897 123.366" fill="#6D184E"/>
<path d="M170.273 344.705C119.401 344.705 78.1616 339.89 78.1616 333.95C78.1616 328.011 119.401 323.195 170.273 323.195C221.144 323.195 262.383 328.011 262.383 333.95C262.383 339.89 221.144 344.705 170.273 344.705Z" fill="#F2A40C"/>
</svg>
